ISO-10303-21;
HEADER;
/* Generated by software containing ST-Developer
 * from STEP Tools, Inc. (www.steptools.com) 
 */

FILE_DESCRIPTION(
/* description */ (''),
/* implementation_level */ '2;1');

FILE_NAME(
/* name */ 'reptistatV2a v1.step',
/* time_stamp */ '2025-07-31T23:51:19-04:00',
/* author */ (''),
/* organization */ (''),
/* preprocessor_version */ 'ST-DEVELOPER v20.1',
/* originating_system */ 'Autodesk Translation Framework v14.10.0.0',
/* authorisation */ '');

FILE_SCHEMA (('AUTOMOTIVE_DESIGN { 1 0 10303 214 3 1 1 }'));
ENDSEC;

DATA;
#10=MECHANICAL_DESIGN_GEOMETRIC_PRESENTATION_REPRESENTATION('',(#13),#1708);
#11=SHAPE_REPRESENTATION_RELATIONSHIP('SRR','None',#1714,#12);
#12=ADVANCED_BREP_SHAPE_REPRESENTATION('',(#14),#1707);
#13=STYLED_ITEM('',(#1723),#14);
#14=MANIFOLD_SOLID_BREP('Body1',#1068);
#15=FACE_BOUND('',#116,.T.);
#16=FACE_BOUND('',#134,.T.);
#17=FACE_BOUND('',#135,.T.);
#18=FACE_BOUND('',#137,.T.);
#19=FACE_BOUND('',#143,.T.);
#20=FACE_BOUND('',#152,.T.);
#21=FACE_BOUND('',#157,.T.);
#22=FACE_BOUND('',#162,.T.);
#23=FACE_BOUND('',#163,.T.);
#24=FACE_BOUND('',#164,.T.);
#25=FACE_BOUND('',#165,.T.);
#26=CIRCLE('',#1074,17.9);
#27=CIRCLE('',#1075,17.9);
#28=CIRCLE('',#1094,1.97000000000001);
#29=CIRCLE('',#1095,1.97000000000001);
#30=CIRCLE('',#1097,1.97000000000001);
#31=CIRCLE('',#1098,1.97000000000001);
#32=CIRCLE('',#1100,1.97000000000001);
#33=CIRCLE('',#1101,1.97000000000001);
#34=CIRCLE('',#1103,0.900000052247201);
#35=CIRCLE('',#1104,0.900000052247201);
#36=CIRCLE('',#1107,0.900000052247201);
#37=CIRCLE('',#1108,0.900000052247201);
#38=CYLINDRICAL_SURFACE('',#1073,17.9);
#39=CYLINDRICAL_SURFACE('',#1093,1.97000000000001);
#40=CYLINDRICAL_SURFACE('',#1096,1.97000000000001);
#41=CYLINDRICAL_SURFACE('',#1099,1.97000000000001);
#42=CYLINDRICAL_SURFACE('',#1102,0.900000052247201);
#43=CYLINDRICAL_SURFACE('',#1106,0.900000052247201);
#44=FACE_OUTER_BOUND('',#100,.T.);
#45=FACE_OUTER_BOUND('',#101,.T.);
#46=FACE_OUTER_BOUND('',#102,.T.);
#47=FACE_OUTER_BOUND('',#103,.T.);
#48=FACE_OUTER_BOUND('',#104,.T.);
#49=FACE_OUTER_BOUND('',#105,.T.);
#50=FACE_OUTER_BOUND('',#106,.T.);
#51=FACE_OUTER_BOUND('',#107,.T.);
#52=FACE_OUTER_BOUND('',#108,.T.);
#53=FACE_OUTER_BOUND('',#109,.T.);
#54=FACE_OUTER_BOUND('',#110,.T.);
#55=FACE_OUTER_BOUND('',#111,.T.);
#56=FACE_OUTER_BOUND('',#112,.T.);
#57=FACE_OUTER_BOUND('',#113,.T.);
#58=FACE_OUTER_BOUND('',#114,.T.);
#59=FACE_OUTER_BOUND('',#115,.T.);
#60=FACE_OUTER_BOUND('',#117,.T.);
#61=FACE_OUTER_BOUND('',#118,.T.);
#62=FACE_OUTER_BOUND('',#119,.T.);
#63=FACE_OUTER_BOUND('',#120,.T.);
#64=FACE_OUTER_BOUND('',#121,.T.);
#65=FACE_OUTER_BOUND('',#122,.T.);
#66=FACE_OUTER_BOUND('',#123,.T.);
#67=FACE_OUTER_BOUND('',#124,.T.);
#68=FACE_OUTER_BOUND('',#125,.T.);
#69=FACE_OUTER_BOUND('',#126,.T.);
#70=FACE_OUTER_BOUND('',#127,.T.);
#71=FACE_OUTER_BOUND('',#128,.T.);
#72=FACE_OUTER_BOUND('',#129,.T.);
#73=FACE_OUTER_BOUND('',#130,.T.);
#74=FACE_OUTER_BOUND('',#131,.T.);
#75=FACE_OUTER_BOUND('',#132,.T.);
#76=FACE_OUTER_BOUND('',#133,.T.);
#77=FACE_OUTER_BOUND('',#136,.T.);
#78=FACE_OUTER_BOUND('',#138,.T.);
#79=FACE_OUTER_BOUND('',#139,.T.);
#80=FACE_OUTER_BOUND('',#140,.T.);
#81=FACE_OUTER_BOUND('',#141,.T.);
#82=FACE_OUTER_BOUND('',#142,.T.);
#83=FACE_OUTER_BOUND('',#144,.T.);
#84=FACE_OUTER_BOUND('',#145,.T.);
#85=FACE_OUTER_BOUND('',#146,.T.);
#86=FACE_OUTER_BOUND('',#147,.T.);
#87=FACE_OUTER_BOUND('',#148,.T.);
#88=FACE_OUTER_BOUND('',#149,.T.);
#89=FACE_OUTER_BOUND('',#150,.T.);
#90=FACE_OUTER_BOUND('',#151,.T.);
#91=FACE_OUTER_BOUND('',#153,.T.);
#92=FACE_OUTER_BOUND('',#154,.T.);
#93=FACE_OUTER_BOUND('',#155,.T.);
#94=FACE_OUTER_BOUND('',#156,.T.);
#95=FACE_OUTER_BOUND('',#158,.T.);
#96=FACE_OUTER_BOUND('',#159,.T.);
#97=FACE_OUTER_BOUND('',#160,.T.);
#98=FACE_OUTER_BOUND('',#161,.T.);
#99=FACE_OUTER_BOUND('',#166,.T.);
#100=EDGE_LOOP('',(#672,#673,#674,#675));
#101=EDGE_LOOP('',(#676,#677,#678,#679));
#102=EDGE_LOOP('',(#680,#681,#682,#683));
#103=EDGE_LOOP('',(#684,#685,#686,#687));
#104=EDGE_LOOP('',(#688,#689,#690,#691));
#105=EDGE_LOOP('',(#692,#693,#694,#695));
#106=EDGE_LOOP('',(#696,#697,#698,#699));
#107=EDGE_LOOP('',(#700,#701,#702,#703,#704,#705,#706,#707,#708,#709,#710,
#711));
#108=EDGE_LOOP('',(#712,#713,#714,#715,#716,#717,#718,#719));
#109=EDGE_LOOP('',(#720,#721,#722,#723));
#110=EDGE_LOOP('',(#724,#725,#726,#727,#728,#729));
#111=EDGE_LOOP('',(#730,#731,#732,#733,#734,#735));
#112=EDGE_LOOP('',(#736,#737,#738,#739));
#113=EDGE_LOOP('',(#740,#741,#742,#743,#744));
#114=EDGE_LOOP('',(#745,#746,#747,#748));
#115=EDGE_LOOP('',(#749,#750,#751,#752,#753,#754,#755,#756,#757,#758));
#116=EDGE_LOOP('',(#759,#760,#761,#762));
#117=EDGE_LOOP('',(#763,#764,#765,#766));
#118=EDGE_LOOP('',(#767,#768,#769,#770,#771));
#119=EDGE_LOOP('',(#772,#773,#774,#775,#776,#777));
#120=EDGE_LOOP('',(#778,#779,#780,#781));
#121=EDGE_LOOP('',(#782,#783,#784,#785));
#122=EDGE_LOOP('',(#786,#787,#788,#789));
#123=EDGE_LOOP('',(#790,#791,#792,#793));
#124=EDGE_LOOP('',(#794,#795,#796,#797));
#125=EDGE_LOOP('',(#798,#799,#800,#801));
#126=EDGE_LOOP('',(#802));
#127=EDGE_LOOP('',(#803,#804,#805,#806));
#128=EDGE_LOOP('',(#807));
#129=EDGE_LOOP('',(#808,#809,#810,#811));
#130=EDGE_LOOP('',(#812,#813,#814,#815));
#131=EDGE_LOOP('',(#816,#817,#818,#819));
#132=EDGE_LOOP('',(#820,#821,#822,#823));
#133=EDGE_LOOP('',(#824,#825,#826,#827));
#134=EDGE_LOOP('',(#828));
#135=EDGE_LOOP('',(#829));
#136=EDGE_LOOP('',(#830,#831,#832,#833,#834,#835,#836,#837,#838,#839,#840,
#841,#842,#843,#844,#845));
#137=EDGE_LOOP('',(#846,#847,#848,#849));
#138=EDGE_LOOP('',(#850,#851,#852,#853));
#139=EDGE_LOOP('',(#854,#855,#856,#857,#858));
#140=EDGE_LOOP('',(#859,#860,#861,#862));
#141=EDGE_LOOP('',(#863,#864,#865,#866,#867));
#142=EDGE_LOOP('',(#868,#869,#870,#871));
#143=EDGE_LOOP('',(#872));
#144=EDGE_LOOP('',(#873,#874,#875,#876,#877));
#145=EDGE_LOOP('',(#878,#879,#880,#881));
#146=EDGE_LOOP('',(#882,#883,#884,#885,#886));
#147=EDGE_LOOP('',(#887,#888,#889,#890,#891,#892,#893,#894));
#148=EDGE_LOOP('',(#895,#896,#897,#898,#899));
#149=EDGE_LOOP('',(#900,#901,#902,#903));
#150=EDGE_LOOP('',(#904,#905,#906,#907,#908));
#151=EDGE_LOOP('',(#909,#910,#911,#912));
#152=EDGE_LOOP('',(#913));
#153=EDGE_LOOP('',(#914,#915,#916,#917,#918));
#154=EDGE_LOOP('',(#919,#920,#921,#922));
#155=EDGE_LOOP('',(#923,#924,#925,#926,#927));
#156=EDGE_LOOP('',(#928,#929,#930,#931));
#157=EDGE_LOOP('',(#932));
#158=EDGE_LOOP('',(#933,#934,#935,#936));
#159=EDGE_LOOP('',(#937,#938,#939,#940,#941,#942));
#160=EDGE_LOOP('',(#943,#944,#945,#946));
#161=EDGE_LOOP('',(#947,#948,#949,#950));
#162=EDGE_LOOP('',(#951,#952,#953,#954));
#163=EDGE_LOOP('',(#955));
#164=EDGE_LOOP('',(#956));
#165=EDGE_LOOP('',(#957));
#166=EDGE_LOOP('',(#958,#959,#960,#961));
#167=LINE('',#1413,#300);
#168=LINE('',#1415,#301);
#169=LINE('',#1417,#302);
#170=LINE('',#1418,#303);
#171=LINE('',#1421,#304);
#172=LINE('',#1423,#305);
#173=LINE('',#1424,#306);
#174=LINE('',#1427,#307);
#175=LINE('',#1429,#308);
#176=LINE('',#1430,#309);
#177=LINE('',#1437,#310);
#178=LINE('',#1439,#311);
#179=LINE('',#1441,#312);
#180=LINE('',#1442,#313);
#181=LINE('',#1446,#314);
#182=LINE('',#1448,#315);
#183=LINE('',#1450,#316);
#184=LINE('',#1451,#317);
#185=LINE('',#1455,#318);
#186=LINE('',#1457,#319);
#187=LINE('',#1459,#320);
#188=LINE('',#1460,#321);
#189=LINE('',#1464,#322);
#190=LINE('',#1466,#323);
#191=LINE('',#1468,#324);
#192=LINE('',#1470,#325);
#193=LINE('',#1472,#326);
#194=LINE('',#1474,#327);
#195=LINE('',#1476,#328);
#196=LINE('',#1478,#329);
#197=LINE('',#1480,#330);
#198=LINE('',#1482,#331);
#199=LINE('',#1484,#332);
#200=LINE('',#1485,#333);
#201=LINE('',#1487,#334);
#202=LINE('',#1488,#335);
#203=LINE('',#1490,#336);
#204=LINE('',#1492,#337);
#205=LINE('',#1493,#338);
#206=LINE('',#1497,#339);
#207=LINE('',#1499,#340);
#208=LINE('',#1501,#341);
#209=LINE('',#1502,#342);
#210=LINE('',#1506,#343);
#211=LINE('',#1508,#344);
#212=LINE('',#1510,#345);
#213=LINE('',#1511,#346);
#214=LINE('',#1513,#347);
#215=LINE('',#1514,#348);
#216=LINE('',#1518,#349);
#217=LINE('',#1520,#350);
#218=LINE('',#1521,#351);
#219=LINE('',#1523,#352);
#220=LINE('',#1525,#353);
#221=LINE('',#1526,#354);
#222=LINE('',#1530,#355);
#223=LINE('',#1532,#356);
#224=LINE('',#1534,#357);
#225=LINE('',#1535,#358);
#226=LINE('',#1537,#359);
#227=LINE('',#1538,#360);
#228=LINE('',#1540,#361);
#229=LINE('',#1542,#362);
#230=LINE('',#1543,#363);
#231=LINE('',#1544,#364);
#232=LINE('',#1545,#365);
#233=LINE('',#1547,#366);
#234=LINE('',#1549,#367);
#235=LINE('',#1551,#368);
#236=LINE('',#1554,#369);
#237=LINE('',#1556,#370);
#238=LINE('',#1557,#371);
#239=LINE('',#1560,#372);
#240=LINE('',#1562,#373);
#241=LINE('',#1563,#374);
#242=LINE('',#1568,#375);
#243=LINE('',#1574,#376);
#244=LINE('',#1580,#377);
#245=LINE('',#1586,#378);
#246=LINE('',#1593,#379);
#247=LINE('',#1599,#380);
#248=LINE('',#1601,#381);
#249=LINE('',#1603,#382);
#250=LINE('',#1604,#383);
#251=LINE('',#1607,#384);
#252=LINE('',#1609,#385);
#253=LINE('',#1610,#386);
#254=LINE('',#1613,#387);
#255=LINE('',#1615,#388);
#256=LINE('',#1616,#389);
#257=LINE('',#1618,#390);
#258=LINE('',#1619,#391);
#259=LINE('',#1624,#392);
#260=LINE('',#1626,#393);
#261=LINE('',#1628,#394);
#262=LINE('',#1630,#395);
#263=LINE('',#1632,#396);
#264=LINE('',#1634,#397);
#265=LINE('',#1636,#398);
#266=LINE('',#1638,#399);
#267=LINE('',#1640,#400);
#268=LINE('',#1642,#401);
#269=LINE('',#1644,#402);
#270=LINE('',#1646,#403);
#271=LINE('',#1648,#404);
#272=LINE('',#1650,#405);
#273=LINE('',#1652,#406);
#274=LINE('',#1653,#407);
#275=LINE('',#1656,#408);
#276=LINE('',#1658,#409);
#277=LINE('',#1659,#410);
#278=LINE('',#1661,#411);
#279=LINE('',#1662,#412);
#280=LINE('',#1664,#413);
#281=LINE('',#1667,#414);
#282=LINE('',#1668,#415);
#283=LINE('',#1671,#416);
#284=LINE('',#1672,#417);
#285=LINE('',#1674,#418);
#286=LINE('',#1675,#419);
#287=LINE('',#1677,#420);
#288=LINE('',#1679,#421);
#289=LINE('',#1681,#422);
#290=LINE('',#1682,#423);
#291=LINE('',#1684,#424);
#292=LINE('',#1686,#425);
#293=LINE('',#1688,#426);
#294=LINE('',#1690,#427);
#295=LINE('',#1692,#428);
#296=LINE('',#1694,#429);
#297=LINE('',#1696,#430);
#298=LINE('',#1701,#431);
#299=LINE('',#1703,#432);
#300=VECTOR('',#1142,10.);
#301=VECTOR('',#1143,10.);
#302=VECTOR('',#1144,10.);
#303=VECTOR('',#1145,10.);
#304=VECTOR('',#1148,10.);
#305=VECTOR('',#1149,10.);
#306=VECTOR('',#1150,10.);
#307=VECTOR('',#1153,10.);
#308=VECTOR('',#1154,10.);
#309=VECTOR('',#1155,10.);
#310=VECTOR('',#1164,10.);
#311=VECTOR('',#1165,10.);
#312=VECTOR('',#1166,10.);
#313=VECTOR('',#1167,10.);
#314=VECTOR('',#1170,10.);
#315=VECTOR('',#1171,10.);
#316=VECTOR('',#1172,10.);
#317=VECTOR('',#1173,10.);
#318=VECTOR('',#1176,10.);
#319=VECTOR('',#1177,10.);
#320=VECTOR('',#1178,10.);
#321=VECTOR('',#1179,10.);
#322=VECTOR('',#1182,10.);
#323=VECTOR('',#1183,10.);
#324=VECTOR('',#1184,10.);
#325=VECTOR('',#1185,10.);
#326=VECTOR('',#1186,10.);
#327=VECTOR('',#1187,10.);
#328=VECTOR('',#1188,10.);
#329=VECTOR('',#1189,10.);
#330=VECTOR('',#1190,10.);
#331=VECTOR('',#1191,10.);
#332=VECTOR('',#1192,10.);
#333=VECTOR('',#1193,10.);
#334=VECTOR('',#1196,10.);
#335=VECTOR('',#1197,10.);
#336=VECTOR('',#1198,10.);
#337=VECTOR('',#1199,10.);
#338=VECTOR('',#1200,10.);
#339=VECTOR('',#1203,10.);
#340=VECTOR('',#1204,10.);
#341=VECTOR('',#1205,10.);
#342=VECTOR('',#1206,10.);
#343=VECTOR('',#1209,10.);
#344=VECTOR('',#1210,10.);
#345=VECTOR('',#1211,10.);
#346=VECTOR('',#1212,10.);
#347=VECTOR('',#1213,10.);
#348=VECTOR('',#1214,10.);
#349=VECTOR('',#1217,10.);
#350=VECTOR('',#1218,10.);
#351=VECTOR('',#1219,10.);
#352=VECTOR('',#1220,10.);
#353=VECTOR('',#1221,10.);
#354=VECTOR('',#1222,10.);
#355=VECTOR('',#1225,10.);
#356=VECTOR('',#1226,10.);
#357=VECTOR('',#1227,10.);
#358=VECTOR('',#1228,10.);
#359=VECTOR('',#1231,10.);
#360=VECTOR('',#1232,10.);
#361=VECTOR('',#1235,10.);
#362=VECTOR('',#1238,10.);
#363=VECTOR('',#1239,10.);
#364=VECTOR('',#1240,10.);
#365=VECTOR('',#1241,10.);
#366=VECTOR('',#1244,10.);
#367=VECTOR('',#1247,10.);
#368=VECTOR('',#1250,10.);
#369=VECTOR('',#1253,10.);
#370=VECTOR('',#1254,10.);
#371=VECTOR('',#1255,10.);
#372=VECTOR('',#1258,10.);
#373=VECTOR('',#1259,10.);
#374=VECTOR('',#1260,10.);
#375=VECTOR('',#1265,1.97000000000001);
#376=VECTOR('',#1272,1.97000000000001);
#377=VECTOR('',#1279,1.97000000000001);
#378=VECTOR('',#1286,0.900000052247201);
#379=VECTOR('',#1295,0.900000052247201);
#380=VECTOR('',#1302,10.);
#381=VECTOR('',#1303,10.);
#382=VECTOR('',#1304,10.);
#383=VECTOR('',#1305,10.);
#384=VECTOR('',#1308,10.);
#385=VECTOR('',#1309,10.);
#386=VECTOR('',#1310,10.);
#387=VECTOR('',#1313,10.);
#388=VECTOR('',#1314,10.);
#389=VECTOR('',#1315,10.);
#390=VECTOR('',#1318,10.);
#391=VECTOR('',#1319,10.);
#392=VECTOR('',#1324,10.);
#393=VECTOR('',#1325,10.);
#394=VECTOR('',#1326,10.);
#395=VECTOR('',#1327,10.);
#396=VECTOR('',#1328,10.);
#397=VECTOR('',#1329,10.);
#398=VECTOR('',#1330,10.);
#399=VECTOR('',#1331,10.);
#400=VECTOR('',#1332,10.);
#401=VECTOR('',#1333,10.);
#402=VECTOR('',#1334,10.);
#403=VECTOR('',#1335,10.);
#404=VECTOR('',#1336,10.);
#405=VECTOR('',#1337,10.);
#406=VECTOR('',#1338,10.);
#407=VECTOR('',#1339,10.);
#408=VECTOR('',#1342,10.);
#409=VECTOR('',#1343,10.);
#410=VECTOR('',#1344,10.);
#411=VECTOR('',#1347,10.);
#412=VECTOR('',#1348,10.);
#413=VECTOR('',#1351,10.);
#414=VECTOR('',#1354,10.);
#415=VECTOR('',#1355,10.);
#416=VECTOR('',#1358,10.);
#417=VECTOR('',#1359,10.);
#418=VECTOR('',#1362,10.);
#419=VECTOR('',#1363,10.);
#420=VECTOR('',#1366,10.);
#421=VECTOR('',#1369,10.);
#422=VECTOR('',#1372,10.);
#423=VECTOR('',#1373,10.);
#424=VECTOR('',#1376,10.);
#425=VECTOR('',#1379,10.);
#426=VECTOR('',#1382,10.);
#427=VECTOR('',#1385,10.);
#428=VECTOR('',#1388,10.);
#429=VECTOR('',#1391,10.);
#430=VECTOR('',#1394,10.);
#431=VECTOR('',#1403,10.);
#432=VECTOR('',#1406,10.);
#433=VERTEX_POINT('',#1411);
#434=VERTEX_POINT('',#1412);
#435=VERTEX_POINT('',#1414);
#436=VERTEX_POINT('',#1416);
#437=VERTEX_POINT('',#1420);
#438=VERTEX_POINT('',#1422);
#439=VERTEX_POINT('',#1426);
#440=VERTEX_POINT('',#1428);
#441=VERTEX_POINT('',#1435);
#442=VERTEX_POINT('',#1436);
#443=VERTEX_POINT('',#1438);
#444=VERTEX_POINT('',#1440);
#445=VERTEX_POINT('',#1444);
#446=VERTEX_POINT('',#1445);
#447=VERTEX_POINT('',#1447);
#448=VERTEX_POINT('',#1449);
#449=VERTEX_POINT('',#1453);
#450=VERTEX_POINT('',#1454);
#451=VERTEX_POINT('',#1456);
#452=VERTEX_POINT('',#1458);
#453=VERTEX_POINT('',#1462);
#454=VERTEX_POINT('',#1463);
#455=VERTEX_POINT('',#1465);
#456=VERTEX_POINT('',#1467);
#457=VERTEX_POINT('',#1469);
#458=VERTEX_POINT('',#1471);
#459=VERTEX_POINT('',#1473);
#460=VERTEX_POINT('',#1475);
#461=VERTEX_POINT('',#1477);
#462=VERTEX_POINT('',#1479);
#463=VERTEX_POINT('',#1481);
#464=VERTEX_POINT('',#1483);
#465=VERTEX_POINT('',#1489);
#466=VERTEX_POINT('',#1491);
#467=VERTEX_POINT('',#1495);
#468=VERTEX_POINT('',#1496);
#469=VERTEX_POINT('',#1498);
#470=VERTEX_POINT('',#1500);
#471=VERTEX_POINT('',#1504);
#472=VERTEX_POINT('',#1505);
#473=VERTEX_POINT('',#1507);
#474=VERTEX_POINT('',#1509);
#475=VERTEX_POINT('',#1512);
#476=VERTEX_POINT('',#1516);
#477=VERTEX_POINT('',#1517);
#478=VERTEX_POINT('',#1519);
#479=VERTEX_POINT('',#1522);
#480=VERTEX_POINT('',#1524);
#481=VERTEX_POINT('',#1528);
#482=VERTEX_POINT('',#1529);
#483=VERTEX_POINT('',#1531);
#484=VERTEX_POINT('',#1533);
#485=VERTEX_POINT('',#1553);
#486=VERTEX_POINT('',#1555);
#487=VERTEX_POINT('',#1559);
#488=VERTEX_POINT('',#1561);
#489=VERTEX_POINT('',#1565);
#490=VERTEX_POINT('',#1567);
#491=VERTEX_POINT('',#1571);
#492=VERTEX_POINT('',#1573);
#493=VERTEX_POINT('',#1577);
#494=VERTEX_POINT('',#1579);
#495=VERTEX_POINT('',#1583);
#496=VERTEX_POINT('',#1585);
#497=VERTEX_POINT('',#1590);
#498=VERTEX_POINT('',#1592);
#499=VERTEX_POINT('',#1597);
#500=VERTEX_POINT('',#1598);
#501=VERTEX_POINT('',#1600);
#502=VERTEX_POINT('',#1602);
#503=VERTEX_POINT('',#1606);
#504=VERTEX_POINT('',#1608);
#505=VERTEX_POINT('',#1612);
#506=VERTEX_POINT('',#1614);
#507=VERTEX_POINT('',#1622);
#508=VERTEX_POINT('',#1623);
#509=VERTEX_POINT('',#1625);
#510=VERTEX_POINT('',#1627);
#511=VERTEX_POINT('',#1629);
#512=VERTEX_POINT('',#1631);
#513=VERTEX_POINT('',#1633);
#514=VERTEX_POINT('',#1635);
#515=VERTEX_POINT('',#1637);
#516=VERTEX_POINT('',#1639);
#517=VERTEX_POINT('',#1641);
#518=VERTEX_POINT('',#1643);
#519=VERTEX_POINT('',#1645);
#520=VERTEX_POINT('',#1647);
#521=VERTEX_POINT('',#1649);
#522=VERTEX_POINT('',#1651);
#523=VERTEX_POINT('',#1655);
#524=VERTEX_POINT('',#1657);
#525=VERTEX_POINT('',#1666);
#526=VERTEX_POINT('',#1670);
#527=EDGE_CURVE('',#433,#434,#167,.T.);
#528=EDGE_CURVE('',#435,#433,#168,.T.);
#529=EDGE_CURVE('',#436,#435,#169,.T.);
#530=EDGE_CURVE('',#436,#434,#170,.T.);
#531=EDGE_CURVE('',#434,#437,#171,.T.);
#532=EDGE_CURVE('',#438,#436,#172,.T.);
#533=EDGE_CURVE('',#438,#437,#173,.T.);
#534=EDGE_CURVE('',#437,#439,#174,.T.);
#535=EDGE_CURVE('',#440,#438,#175,.T.);
#536=EDGE_CURVE('',#440,#439,#176,.T.);
#537=EDGE_CURVE('',#439,#433,#26,.T.);
#538=EDGE_CURVE('',#435,#440,#27,.T.);
#539=EDGE_CURVE('',#441,#442,#177,.T.);
#540=EDGE_CURVE('',#443,#441,#178,.T.);
#541=EDGE_CURVE('',#444,#443,#179,.T.);
#542=EDGE_CURVE('',#442,#444,#180,.T.);
#543=EDGE_CURVE('',#445,#446,#181,.T.);
#544=EDGE_CURVE('',#447,#445,#182,.T.);
#545=EDGE_CURVE('',#448,#447,#183,.T.);
#546=EDGE_CURVE('',#448,#446,#184,.T.);
#547=EDGE_CURVE('',#449,#450,#185,.T.);
#548=EDGE_CURVE('',#450,#451,#186,.T.);
#549=EDGE_CURVE('',#452,#451,#187,.T.);
#550=EDGE_CURVE('',#449,#452,#188,.T.);
#551=EDGE_CURVE('',#453,#454,#189,.T.);
#552=EDGE_CURVE('',#454,#455,#190,.T.);
#553=EDGE_CURVE('',#455,#456,#191,.T.);
#554=EDGE_CURVE('',#456,#457,#192,.T.);
#555=EDGE_CURVE('',#457,#458,#193,.T.);
#556=EDGE_CURVE('',#458,#459,#194,.T.);
#557=EDGE_CURVE('',#459,#460,#195,.T.);
#558=EDGE_CURVE('',#460,#461,#196,.T.);
#559=EDGE_CURVE('',#461,#462,#197,.T.);
#560=EDGE_CURVE('',#462,#463,#198,.T.);
#561=EDGE_CURVE('',#463,#464,#199,.T.);
#562=EDGE_CURVE('',#464,#453,#200,.T.);
#563=EDGE_CURVE('',#454,#444,#201,.T.);
#564=EDGE_CURVE('',#443,#459,#202,.T.);
#565=EDGE_CURVE('',#458,#465,#203,.T.);
#566=EDGE_CURVE('',#466,#465,#204,.T.);
#567=EDGE_CURVE('',#455,#466,#205,.T.);
#568=EDGE_CURVE('',#467,#468,#206,.T.);
#569=EDGE_CURVE('',#469,#467,#207,.T.);
#570=EDGE_CURVE('',#470,#469,#208,.T.);
#571=EDGE_CURVE('',#468,#470,#209,.T.);
#572=EDGE_CURVE('',#471,#472,#210,.T.);
#573=EDGE_CURVE('',#473,#471,#211,.T.);
#574=EDGE_CURVE('',#474,#473,#212,.T.);
#575=EDGE_CURVE('',#448,#474,#213,.T.);
#576=EDGE_CURVE('',#475,#448,#214,.T.);
#577=EDGE_CURVE('',#472,#475,#215,.T.);
#578=EDGE_CURVE('',#476,#477,#216,.T.);
#579=EDGE_CURVE('',#478,#476,#217,.T.);
#580=EDGE_CURVE('',#451,#478,#218,.T.);
#581=EDGE_CURVE('',#479,#451,#219,.T.);
#582=EDGE_CURVE('',#480,#479,#220,.T.);
#583=EDGE_CURVE('',#477,#480,#221,.T.);
#584=EDGE_CURVE('',#481,#482,#222,.T.);
#585=EDGE_CURVE('',#483,#481,#223,.T.);
#586=EDGE_CURVE('',#484,#483,#224,.T.);
#587=EDGE_CURVE('',#482,#484,#225,.T.);
#588=EDGE_CURVE('',#464,#479,#226,.T.);
#589=EDGE_CURVE('',#453,#450,#227,.T.);
#590=EDGE_CURVE('',#463,#480,#228,.T.);
#591=EDGE_CURVE('',#462,#473,#229,.T.);
#592=EDGE_CURVE('',#469,#471,#230,.T.);
#593=EDGE_CURVE('',#483,#467,#231,.T.);
#594=EDGE_CURVE('',#477,#481,#232,.T.);
#595=EDGE_CURVE('',#461,#474,#233,.T.);
#596=EDGE_CURVE('',#446,#460,#234,.T.);
#597=EDGE_CURVE('',#442,#449,#235,.T.);
#598=EDGE_CURVE('',#485,#471,#236,.T.);
#599=EDGE_CURVE('',#486,#485,#237,.T.);
#600=EDGE_CURVE('',#469,#486,#238,.T.);
#601=EDGE_CURVE('',#487,#467,#239,.T.);
#602=EDGE_CURVE('',#488,#487,#240,.T.);
#603=EDGE_CURVE('',#483,#488,#241,.T.);
#604=EDGE_CURVE('',#489,#489,#28,.T.);
#605=EDGE_CURVE('',#489,#490,#242,.T.);
#606=EDGE_CURVE('',#490,#490,#29,.T.);
#607=EDGE_CURVE('',#491,#491,#30,.T.);
#608=EDGE_CURVE('',#491,#492,#243,.T.);
#609=EDGE_CURVE('',#492,#492,#31,.T.);
#610=EDGE_CURVE('',#493,#493,#32,.T.);
#611=EDGE_CURVE('',#493,#494,#244,.T.);
#612=EDGE_CURVE('',#494,#494,#33,.T.);
#613=EDGE_CURVE('',#495,#495,#34,.T.);
#614=EDGE_CURVE('',#495,#496,#245,.T.);
#615=EDGE_CURVE('',#496,#496,#35,.T.);
#616=EDGE_CURVE('',#497,#497,#36,.T.);
#617=EDGE_CURVE('',#497,#498,#246,.T.);
#618=EDGE_CURVE('',#498,#498,#37,.T.);
#619=EDGE_CURVE('',#499,#500,#247,.T.);
#620=EDGE_CURVE('',#499,#501,#248,.T.);
#621=EDGE_CURVE('',#502,#501,#249,.T.);
#622=EDGE_CURVE('',#500,#502,#250,.T.);
#623=EDGE_CURVE('',#500,#503,#251,.T.);
#624=EDGE_CURVE('',#504,#502,#252,.T.);
#625=EDGE_CURVE('',#503,#504,#253,.T.);
#626=EDGE_CURVE('',#503,#505,#254,.T.);
#627=EDGE_CURVE('',#506,#504,#255,.T.);
#628=EDGE_CURVE('',#505,#506,#256,.T.);
#629=EDGE_CURVE('',#505,#499,#257,.T.);
#630=EDGE_CURVE('',#501,#506,#258,.T.);
#631=EDGE_CURVE('',#507,#508,#259,.T.);
#632=EDGE_CURVE('',#508,#509,#260,.T.);
#633=EDGE_CURVE('',#509,#510,#261,.T.);
#634=EDGE_CURVE('',#510,#511,#262,.T.);
#635=EDGE_CURVE('',#511,#512,#263,.T.);
#636=EDGE_CURVE('',#512,#513,#264,.T.);
#637=EDGE_CURVE('',#513,#514,#265,.T.);
#638=EDGE_CURVE('',#514,#515,#266,.T.);
#639=EDGE_CURVE('',#515,#516,#267,.T.);
#640=EDGE_CURVE('',#516,#517,#268,.T.);
#641=EDGE_CURVE('',#517,#518,#269,.T.);
#642=EDGE_CURVE('',#518,#519,#270,.T.);
#643=EDGE_CURVE('',#519,#520,#271,.T.);
#644=EDGE_CURVE('',#520,#521,#272,.T.);
#645=EDGE_CURVE('',#521,#522,#273,.T.);
#646=EDGE_CURVE('',#522,#507,#274,.T.);
#647=EDGE_CURVE('',#523,#466,#275,.T.);
#648=EDGE_CURVE('',#465,#524,#276,.T.);
#649=EDGE_CURVE('',#524,#523,#277,.T.);
#650=EDGE_CURVE('',#507,#484,#278,.T.);
#651=EDGE_CURVE('',#508,#488,#279,.T.);
#652=EDGE_CURVE('',#522,#482,#280,.T.);
#653=EDGE_CURVE('',#521,#525,#281,.T.);
#654=EDGE_CURVE('',#525,#481,#282,.T.);
#655=EDGE_CURVE('',#520,#526,#283,.T.);
#656=EDGE_CURVE('',#526,#525,#284,.T.);
#657=EDGE_CURVE('',#519,#476,#285,.T.);
#658=EDGE_CURVE('',#477,#526,#286,.T.);
#659=EDGE_CURVE('',#518,#478,#287,.T.);
#660=EDGE_CURVE('',#517,#452,#288,.T.);
#661=EDGE_CURVE('',#516,#447,#289,.T.);
#662=EDGE_CURVE('',#445,#441,#290,.T.);
#663=EDGE_CURVE('',#515,#475,#291,.T.);
#664=EDGE_CURVE('',#514,#472,#292,.T.);
#665=EDGE_CURVE('',#513,#485,#293,.T.);
#666=EDGE_CURVE('',#512,#486,#294,.T.);
#667=EDGE_CURVE('',#511,#470,#295,.T.);
#668=EDGE_CURVE('',#510,#468,#296,.T.);
#669=EDGE_CURVE('',#509,#487,#297,.T.);
#670=EDGE_CURVE('',#457,#524,#298,.T.);
#671=EDGE_CURVE('',#523,#456,#299,.T.);
#672=ORIENTED_EDGE('',*,*,#527,.F.);
#673=ORIENTED_EDGE('',*,*,#528,.F.);
#674=ORIENTED_EDGE('',*,*,#529,.F.);
#675=ORIENTED_EDGE('',*,*,#530,.T.);
#676=ORIENTED_EDGE('',*,*,#531,.F.);
#677=ORIENTED_EDGE('',*,*,#530,.F.);
#678=ORIENTED_EDGE('',*,*,#532,.F.);
#679=ORIENTED_EDGE('',*,*,#533,.T.);
#680=ORIENTED_EDGE('',*,*,#534,.F.);
#681=ORIENTED_EDGE('',*,*,#533,.F.);
#682=ORIENTED_EDGE('',*,*,#535,.F.);
#683=ORIENTED_EDGE('',*,*,#536,.T.);
#684=ORIENTED_EDGE('',*,*,#537,.F.);
#685=ORIENTED_EDGE('',*,*,#536,.F.);
#686=ORIENTED_EDGE('',*,*,#538,.F.);
#687=ORIENTED_EDGE('',*,*,#528,.T.);
#688=ORIENTED_EDGE('',*,*,#539,.F.);
#689=ORIENTED_EDGE('',*,*,#540,.F.);
#690=ORIENTED_EDGE('',*,*,#541,.F.);
#691=ORIENTED_EDGE('',*,*,#542,.F.);
#692=ORIENTED_EDGE('',*,*,#543,.F.);
#693=ORIENTED_EDGE('',*,*,#544,.F.);
#694=ORIENTED_EDGE('',*,*,#545,.F.);
#695=ORIENTED_EDGE('',*,*,#546,.T.);
#696=ORIENTED_EDGE('',*,*,#547,.T.);
#697=ORIENTED_EDGE('',*,*,#548,.T.);
#698=ORIENTED_EDGE('',*,*,#549,.F.);
#699=ORIENTED_EDGE('',*,*,#550,.F.);
#700=ORIENTED_EDGE('',*,*,#551,.T.);
#701=ORIENTED_EDGE('',*,*,#552,.T.);
#702=ORIENTED_EDGE('',*,*,#553,.T.);
#703=ORIENTED_EDGE('',*,*,#554,.T.);
#704=ORIENTED_EDGE('',*,*,#555,.T.);
#705=ORIENTED_EDGE('',*,*,#556,.T.);
#706=ORIENTED_EDGE('',*,*,#557,.T.);
#707=ORIENTED_EDGE('',*,*,#558,.T.);
#708=ORIENTED_EDGE('',*,*,#559,.T.);
#709=ORIENTED_EDGE('',*,*,#560,.T.);
#710=ORIENTED_EDGE('',*,*,#561,.T.);
#711=ORIENTED_EDGE('',*,*,#562,.T.);
#712=ORIENTED_EDGE('',*,*,#563,.T.);
#713=ORIENTED_EDGE('',*,*,#541,.T.);
#714=ORIENTED_EDGE('',*,*,#564,.T.);
#715=ORIENTED_EDGE('',*,*,#556,.F.);
#716=ORIENTED_EDGE('',*,*,#565,.T.);
#717=ORIENTED_EDGE('',*,*,#566,.F.);
#718=ORIENTED_EDGE('',*,*,#567,.F.);
#719=ORIENTED_EDGE('',*,*,#552,.F.);
#720=ORIENTED_EDGE('',*,*,#568,.F.);
#721=ORIENTED_EDGE('',*,*,#569,.F.);
#722=ORIENTED_EDGE('',*,*,#570,.F.);
#723=ORIENTED_EDGE('',*,*,#571,.F.);
#724=ORIENTED_EDGE('',*,*,#572,.F.);
#725=ORIENTED_EDGE('',*,*,#573,.F.);
#726=ORIENTED_EDGE('',*,*,#574,.F.);
#727=ORIENTED_EDGE('',*,*,#575,.F.);
#728=ORIENTED_EDGE('',*,*,#576,.F.);
#729=ORIENTED_EDGE('',*,*,#577,.F.);
#730=ORIENTED_EDGE('',*,*,#578,.F.);
#731=ORIENTED_EDGE('',*,*,#579,.F.);
#732=ORIENTED_EDGE('',*,*,#580,.F.);
#733=ORIENTED_EDGE('',*,*,#581,.F.);
#734=ORIENTED_EDGE('',*,*,#582,.F.);
#735=ORIENTED_EDGE('',*,*,#583,.F.);
#736=ORIENTED_EDGE('',*,*,#584,.F.);
#737=ORIENTED_EDGE('',*,*,#585,.F.);
#738=ORIENTED_EDGE('',*,*,#586,.F.);
#739=ORIENTED_EDGE('',*,*,#587,.F.);
#740=ORIENTED_EDGE('',*,*,#562,.F.);
#741=ORIENTED_EDGE('',*,*,#588,.T.);
#742=ORIENTED_EDGE('',*,*,#581,.T.);
#743=ORIENTED_EDGE('',*,*,#548,.F.);
#744=ORIENTED_EDGE('',*,*,#589,.F.);
#745=ORIENTED_EDGE('',*,*,#561,.F.);
#746=ORIENTED_EDGE('',*,*,#590,.T.);
#747=ORIENTED_EDGE('',*,*,#582,.T.);
#748=ORIENTED_EDGE('',*,*,#588,.F.);
#749=ORIENTED_EDGE('',*,*,#560,.F.);
#750=ORIENTED_EDGE('',*,*,#591,.T.);
#751=ORIENTED_EDGE('',*,*,#573,.T.);
#752=ORIENTED_EDGE('',*,*,#592,.F.);
#753=ORIENTED_EDGE('',*,*,#569,.T.);
#754=ORIENTED_EDGE('',*,*,#593,.F.);
#755=ORIENTED_EDGE('',*,*,#585,.T.);
#756=ORIENTED_EDGE('',*,*,#594,.F.);
#757=ORIENTED_EDGE('',*,*,#583,.T.);
#758=ORIENTED_EDGE('',*,*,#590,.F.);
#759=ORIENTED_EDGE('',*,*,#535,.T.);
#760=ORIENTED_EDGE('',*,*,#532,.T.);
#761=ORIENTED_EDGE('',*,*,#529,.T.);
#762=ORIENTED_EDGE('',*,*,#538,.T.);
#763=ORIENTED_EDGE('',*,*,#559,.F.);
#764=ORIENTED_EDGE('',*,*,#595,.T.);
#765=ORIENTED_EDGE('',*,*,#574,.T.);
#766=ORIENTED_EDGE('',*,*,#591,.F.);
#767=ORIENTED_EDGE('',*,*,#558,.F.);
#768=ORIENTED_EDGE('',*,*,#596,.F.);
#769=ORIENTED_EDGE('',*,*,#546,.F.);
#770=ORIENTED_EDGE('',*,*,#575,.T.);
#771=ORIENTED_EDGE('',*,*,#595,.F.);
#772=ORIENTED_EDGE('',*,*,#589,.T.);
#773=ORIENTED_EDGE('',*,*,#547,.F.);
#774=ORIENTED_EDGE('',*,*,#597,.F.);
#775=ORIENTED_EDGE('',*,*,#542,.T.);
#776=ORIENTED_EDGE('',*,*,#563,.F.);
#777=ORIENTED_EDGE('',*,*,#551,.F.);
#778=ORIENTED_EDGE('',*,*,#592,.T.);
#779=ORIENTED_EDGE('',*,*,#598,.F.);
#780=ORIENTED_EDGE('',*,*,#599,.F.);
#781=ORIENTED_EDGE('',*,*,#600,.F.);
#782=ORIENTED_EDGE('',*,*,#593,.T.);
#783=ORIENTED_EDGE('',*,*,#601,.F.);
#784=ORIENTED_EDGE('',*,*,#602,.F.);
#785=ORIENTED_EDGE('',*,*,#603,.F.);
#786=ORIENTED_EDGE('',*,*,#604,.F.);
#787=ORIENTED_EDGE('',*,*,#605,.T.);
#788=ORIENTED_EDGE('',*,*,#606,.F.);
#789=ORIENTED_EDGE('',*,*,#605,.F.);
#790=ORIENTED_EDGE('',*,*,#607,.F.);
#791=ORIENTED_EDGE('',*,*,#608,.T.);
#792=ORIENTED_EDGE('',*,*,#609,.F.);
#793=ORIENTED_EDGE('',*,*,#608,.F.);
#794=ORIENTED_EDGE('',*,*,#610,.F.);
#795=ORIENTED_EDGE('',*,*,#611,.T.);
#796=ORIENTED_EDGE('',*,*,#612,.F.);
#797=ORIENTED_EDGE('',*,*,#611,.F.);
#798=ORIENTED_EDGE('',*,*,#613,.F.);
#799=ORIENTED_EDGE('',*,*,#614,.T.);
#800=ORIENTED_EDGE('',*,*,#615,.F.);
#801=ORIENTED_EDGE('',*,*,#614,.F.);
#802=ORIENTED_EDGE('',*,*,#613,.T.);
#803=ORIENTED_EDGE('',*,*,#616,.F.);
#804=ORIENTED_EDGE('',*,*,#617,.T.);
#805=ORIENTED_EDGE('',*,*,#618,.F.);
#806=ORIENTED_EDGE('',*,*,#617,.F.);
#807=ORIENTED_EDGE('',*,*,#616,.T.);
#808=ORIENTED_EDGE('',*,*,#619,.F.);
#809=ORIENTED_EDGE('',*,*,#620,.T.);
#810=ORIENTED_EDGE('',*,*,#621,.F.);
#811=ORIENTED_EDGE('',*,*,#622,.F.);
#812=ORIENTED_EDGE('',*,*,#623,.F.);
#813=ORIENTED_EDGE('',*,*,#622,.T.);
#814=ORIENTED_EDGE('',*,*,#624,.F.);
#815=ORIENTED_EDGE('',*,*,#625,.F.);
#816=ORIENTED_EDGE('',*,*,#626,.F.);
#817=ORIENTED_EDGE('',*,*,#625,.T.);
#818=ORIENTED_EDGE('',*,*,#627,.F.);
#819=ORIENTED_EDGE('',*,*,#628,.F.);
#820=ORIENTED_EDGE('',*,*,#629,.F.);
#821=ORIENTED_EDGE('',*,*,#628,.T.);
#822=ORIENTED_EDGE('',*,*,#630,.F.);
#823=ORIENTED_EDGE('',*,*,#620,.F.);
#824=ORIENTED_EDGE('',*,*,#630,.T.);
#825=ORIENTED_EDGE('',*,*,#627,.T.);
#826=ORIENTED_EDGE('',*,*,#624,.T.);
#827=ORIENTED_EDGE('',*,*,#621,.T.);
#828=ORIENTED_EDGE('',*,*,#615,.T.);
#829=ORIENTED_EDGE('',*,*,#618,.T.);
#830=ORIENTED_EDGE('',*,*,#631,.T.);
#831=ORIENTED_EDGE('',*,*,#632,.T.);
#832=ORIENTED_EDGE('',*,*,#633,.T.);
#833=ORIENTED_EDGE('',*,*,#634,.T.);
#834=ORIENTED_EDGE('',*,*,#635,.T.);
#835=ORIENTED_EDGE('',*,*,#636,.T.);
#836=ORIENTED_EDGE('',*,*,#637,.T.);
#837=ORIENTED_EDGE('',*,*,#638,.T.);
#838=ORIENTED_EDGE('',*,*,#639,.T.);
#839=ORIENTED_EDGE('',*,*,#640,.T.);
#840=ORIENTED_EDGE('',*,*,#641,.T.);
#841=ORIENTED_EDGE('',*,*,#642,.T.);
#842=ORIENTED_EDGE('',*,*,#643,.T.);
#843=ORIENTED_EDGE('',*,*,#644,.T.);
#844=ORIENTED_EDGE('',*,*,#645,.T.);
#845=ORIENTED_EDGE('',*,*,#646,.T.);
#846=ORIENTED_EDGE('',*,*,#619,.T.);
#847=ORIENTED_EDGE('',*,*,#623,.T.);
#848=ORIENTED_EDGE('',*,*,#626,.T.);
#849=ORIENTED_EDGE('',*,*,#629,.T.);
#850=ORIENTED_EDGE('',*,*,#647,.T.);
#851=ORIENTED_EDGE('',*,*,#566,.T.);
#852=ORIENTED_EDGE('',*,*,#648,.T.);
#853=ORIENTED_EDGE('',*,*,#649,.T.);
#854=ORIENTED_EDGE('',*,*,#631,.F.);
#855=ORIENTED_EDGE('',*,*,#650,.T.);
#856=ORIENTED_EDGE('',*,*,#586,.T.);
#857=ORIENTED_EDGE('',*,*,#603,.T.);
#858=ORIENTED_EDGE('',*,*,#651,.F.);
#859=ORIENTED_EDGE('',*,*,#646,.F.);
#860=ORIENTED_EDGE('',*,*,#652,.T.);
#861=ORIENTED_EDGE('',*,*,#587,.T.);
#862=ORIENTED_EDGE('',*,*,#650,.F.);
#863=ORIENTED_EDGE('',*,*,#645,.F.);
#864=ORIENTED_EDGE('',*,*,#653,.T.);
#865=ORIENTED_EDGE('',*,*,#654,.T.);
#866=ORIENTED_EDGE('',*,*,#584,.T.);
#867=ORIENTED_EDGE('',*,*,#652,.F.);
#868=ORIENTED_EDGE('',*,*,#644,.F.);
#869=ORIENTED_EDGE('',*,*,#655,.T.);
#870=ORIENTED_EDGE('',*,*,#656,.T.);
#871=ORIENTED_EDGE('',*,*,#653,.F.);
#872=ORIENTED_EDGE('',*,*,#606,.T.);
#873=ORIENTED_EDGE('',*,*,#643,.F.);
#874=ORIENTED_EDGE('',*,*,#657,.T.);
#875=ORIENTED_EDGE('',*,*,#578,.T.);
#876=ORIENTED_EDGE('',*,*,#658,.T.);
#877=ORIENTED_EDGE('',*,*,#655,.F.);
#878=ORIENTED_EDGE('',*,*,#642,.F.);
#879=ORIENTED_EDGE('',*,*,#659,.T.);
#880=ORIENTED_EDGE('',*,*,#579,.T.);
#881=ORIENTED_EDGE('',*,*,#657,.F.);
#882=ORIENTED_EDGE('',*,*,#641,.F.);
#883=ORIENTED_EDGE('',*,*,#660,.T.);
#884=ORIENTED_EDGE('',*,*,#549,.T.);
#885=ORIENTED_EDGE('',*,*,#580,.T.);
#886=ORIENTED_EDGE('',*,*,#659,.F.);
#887=ORIENTED_EDGE('',*,*,#597,.T.);
#888=ORIENTED_EDGE('',*,*,#550,.T.);
#889=ORIENTED_EDGE('',*,*,#660,.F.);
#890=ORIENTED_EDGE('',*,*,#640,.F.);
#891=ORIENTED_EDGE('',*,*,#661,.T.);
#892=ORIENTED_EDGE('',*,*,#544,.T.);
#893=ORIENTED_EDGE('',*,*,#662,.T.);
#894=ORIENTED_EDGE('',*,*,#539,.T.);
#895=ORIENTED_EDGE('',*,*,#639,.F.);
#896=ORIENTED_EDGE('',*,*,#663,.T.);
#897=ORIENTED_EDGE('',*,*,#576,.T.);
#898=ORIENTED_EDGE('',*,*,#545,.T.);
#899=ORIENTED_EDGE('',*,*,#661,.F.);
#900=ORIENTED_EDGE('',*,*,#638,.F.);
#901=ORIENTED_EDGE('',*,*,#664,.T.);
#902=ORIENTED_EDGE('',*,*,#577,.T.);
#903=ORIENTED_EDGE('',*,*,#663,.F.);
#904=ORIENTED_EDGE('',*,*,#637,.F.);
#905=ORIENTED_EDGE('',*,*,#665,.T.);
#906=ORIENTED_EDGE('',*,*,#598,.T.);
#907=ORIENTED_EDGE('',*,*,#572,.T.);
#908=ORIENTED_EDGE('',*,*,#664,.F.);
#909=ORIENTED_EDGE('',*,*,#636,.F.);
#910=ORIENTED_EDGE('',*,*,#666,.T.);
#911=ORIENTED_EDGE('',*,*,#599,.T.);
#912=ORIENTED_EDGE('',*,*,#665,.F.);
#913=ORIENTED_EDGE('',*,*,#612,.T.);
#914=ORIENTED_EDGE('',*,*,#635,.F.);
#915=ORIENTED_EDGE('',*,*,#667,.T.);
#916=ORIENTED_EDGE('',*,*,#570,.T.);
#917=ORIENTED_EDGE('',*,*,#600,.T.);
#918=ORIENTED_EDGE('',*,*,#666,.F.);
#919=ORIENTED_EDGE('',*,*,#634,.F.);
#920=ORIENTED_EDGE('',*,*,#668,.T.);
#921=ORIENTED_EDGE('',*,*,#571,.T.);
#922=ORIENTED_EDGE('',*,*,#667,.F.);
#923=ORIENTED_EDGE('',*,*,#633,.F.);
#924=ORIENTED_EDGE('',*,*,#669,.T.);
#925=ORIENTED_EDGE('',*,*,#601,.T.);
#926=ORIENTED_EDGE('',*,*,#568,.T.);
#927=ORIENTED_EDGE('',*,*,#668,.F.);
#928=ORIENTED_EDGE('',*,*,#632,.F.);
#929=ORIENTED_EDGE('',*,*,#651,.T.);
#930=ORIENTED_EDGE('',*,*,#602,.T.);
#931=ORIENTED_EDGE('',*,*,#669,.F.);
#932=ORIENTED_EDGE('',*,*,#609,.T.);
#933=ORIENTED_EDGE('',*,*,#594,.T.);
#934=ORIENTED_EDGE('',*,*,#654,.F.);
#935=ORIENTED_EDGE('',*,*,#656,.F.);
#936=ORIENTED_EDGE('',*,*,#658,.F.);
#937=ORIENTED_EDGE('',*,*,#596,.T.);
#938=ORIENTED_EDGE('',*,*,#557,.F.);
#939=ORIENTED_EDGE('',*,*,#564,.F.);
#940=ORIENTED_EDGE('',*,*,#540,.T.);
#941=ORIENTED_EDGE('',*,*,#662,.F.);
#942=ORIENTED_EDGE('',*,*,#543,.T.);
#943=ORIENTED_EDGE('',*,*,#565,.F.);
#944=ORIENTED_EDGE('',*,*,#555,.F.);
#945=ORIENTED_EDGE('',*,*,#670,.T.);
#946=ORIENTED_EDGE('',*,*,#648,.F.);
#947=ORIENTED_EDGE('',*,*,#670,.F.);
#948=ORIENTED_EDGE('',*,*,#554,.F.);
#949=ORIENTED_EDGE('',*,*,#671,.F.);
#950=ORIENTED_EDGE('',*,*,#649,.F.);
#951=ORIENTED_EDGE('',*,*,#534,.T.);
#952=ORIENTED_EDGE('',*,*,#537,.T.);
#953=ORIENTED_EDGE('',*,*,#527,.T.);
#954=ORIENTED_EDGE('',*,*,#531,.T.);
#955=ORIENTED_EDGE('',*,*,#604,.T.);
#956=ORIENTED_EDGE('',*,*,#607,.T.);
#957=ORIENTED_EDGE('',*,*,#610,.T.);
#958=ORIENTED_EDGE('',*,*,#671,.T.);
#959=ORIENTED_EDGE('',*,*,#553,.F.);
#960=ORIENTED_EDGE('',*,*,#567,.T.);
#961=ORIENTED_EDGE('',*,*,#647,.F.);
#962=PLANE('',#1070);
#963=PLANE('',#1071);
#964=PLANE('',#1072);
#965=PLANE('',#1076);
#966=PLANE('',#1077);
#967=PLANE('',#1078);
#968=PLANE('',#1079);
#969=PLANE('',#1080);
#970=PLANE('',#1081);
#971=PLANE('',#1082);
#972=PLANE('',#1083);
#973=PLANE('',#1084);
#974=PLANE('',#1085);
#975=PLANE('',#1086);
#976=PLANE('',#1087);
#977=PLANE('',#1088);
#978=PLANE('',#1089);
#979=PLANE('',#1090);
#980=PLANE('',#1091);
#981=PLANE('',#1092);
#982=PLANE('',#1105);
#983=PLANE('',#1109);
#984=PLANE('',#1110);
#985=PLANE('',#1111);
#986=PLANE('',#1112);
#987=PLANE('',#1113);
#988=PLANE('',#1114);
#989=PLANE('',#1115);
#990=PLANE('',#1116);
#991=PLANE('',#1117);
#992=PLANE('',#1118);
#993=PLANE('',#1119);
#994=PLANE('',#1120);
#995=PLANE('',#1121);
#996=PLANE('',#1122);
#997=PLANE('',#1123);
#998=PLANE('',#1124);
#999=PLANE('',#1125);
#1000=PLANE('',#1126);
#1001=PLANE('',#1127);
#1002=PLANE('',#1128);
#1003=PLANE('',#1129);
#1004=PLANE('',#1130);
#1005=PLANE('',#1131);
#1006=PLANE('',#1132);
#1007=PLANE('',#1133);
#1008=PLANE('',#1134);
#1009=PLANE('',#1135);
#1010=PLANE('',#1136);
#1011=PLANE('',#1137);
#1012=ADVANCED_FACE('',(#44),#962,.F.);
#1013=ADVANCED_FACE('',(#45),#963,.F.);
#1014=ADVANCED_FACE('',(#46),#964,.F.);
#1015=ADVANCED_FACE('',(#47),#38,.F.);
#1016=ADVANCED_FACE('',(#48),#965,.F.);
#1017=ADVANCED_FACE('',(#49),#966,.F.);
#1018=ADVANCED_FACE('',(#50),#967,.F.);
#1019=ADVANCED_FACE('',(#51),#968,.T.);
#1020=ADVANCED_FACE('',(#52),#969,.T.);
#1021=ADVANCED_FACE('',(#53),#970,.F.);
#1022=ADVANCED_FACE('',(#54),#971,.F.);
#1023=ADVANCED_FACE('',(#55),#972,.F.);
#1024=ADVANCED_FACE('',(#56),#973,.F.);
#1025=ADVANCED_FACE('',(#57),#974,.F.);
#1026=ADVANCED_FACE('',(#58),#975,.F.);
#1027=ADVANCED_FACE('',(#59,#15),#976,.F.);
#1028=ADVANCED_FACE('',(#60),#977,.F.);
#1029=ADVANCED_FACE('',(#61),#978,.F.);
#1030=ADVANCED_FACE('',(#62),#979,.T.);
#1031=ADVANCED_FACE('',(#63),#980,.F.);
#1032=ADVANCED_FACE('',(#64),#981,.F.);
#1033=ADVANCED_FACE('',(#65),#39,.F.);
#1034=ADVANCED_FACE('',(#66),#40,.F.);
#1035=ADVANCED_FACE('',(#67),#41,.F.);
#1036=ADVANCED_FACE('',(#68),#42,.T.);
#1037=ADVANCED_FACE('',(#69),#982,.F.);
#1038=ADVANCED_FACE('',(#70),#43,.T.);
#1039=ADVANCED_FACE('',(#71),#983,.F.);
#1040=ADVANCED_FACE('',(#72),#984,.T.);
#1041=ADVANCED_FACE('',(#73),#985,.T.);
#1042=ADVANCED_FACE('',(#74),#986,.T.);
#1043=ADVANCED_FACE('',(#75),#987,.T.);
#1044=ADVANCED_FACE('',(#76,#16,#17),#988,.T.);
#1045=ADVANCED_FACE('',(#77,#18),#989,.F.);
#1046=ADVANCED_FACE('',(#78),#990,.T.);
#1047=ADVANCED_FACE('',(#79),#991,.F.);
#1048=ADVANCED_FACE('',(#80),#992,.F.);
#1049=ADVANCED_FACE('',(#81),#993,.F.);
#1050=ADVANCED_FACE('',(#82,#19),#994,.F.);
#1051=ADVANCED_FACE('',(#83),#995,.F.);
#1052=ADVANCED_FACE('',(#84),#996,.F.);
#1053=ADVANCED_FACE('',(#85),#997,.F.);
#1054=ADVANCED_FACE('',(#86),#998,.F.);
#1055=ADVANCED_FACE('',(#87),#999,.F.);
#1056=ADVANCED_FACE('',(#88),#1000,.F.);
#1057=ADVANCED_FACE('',(#89),#1001,.F.);
#1058=ADVANCED_FACE('',(#90,#20),#1002,.F.);
#1059=ADVANCED_FACE('',(#91),#1003,.F.);
#1060=ADVANCED_FACE('',(#92),#1004,.F.);
#1061=ADVANCED_FACE('',(#93),#1005,.F.);
#1062=ADVANCED_FACE('',(#94,#21),#1006,.F.);
#1063=ADVANCED_FACE('',(#95),#1007,.F.);
#1064=ADVANCED_FACE('',(#96),#1008,.T.);
#1065=ADVANCED_FACE('',(#97),#1009,.T.);
#1066=ADVANCED_FACE('',(#98,#22,#23,#24,#25),#1010,.T.);
#1067=ADVANCED_FACE('',(#99),#1011,.T.);
#1068=CLOSED_SHELL('',(#1012,#1013,#1014,#1015,#1016,#1017,#1018,#1019,
#1020,#1021,#1022,#1023,#1024,#1025,#1026,#1027,#1028,#1029,#1030,#1031,
#1032,#1033,#1034,#1035,#1036,#1037,#1038,#1039,#1040,#1041,#1042,#1043,
#1044,#1045,#1046,#1047,#1048,#1049,#1050,#1051,#1052,#1053,#1054,#1055,
#1056,#1057,#1058,#1059,#1060,#1061,#1062,#1063,#1064,#1065,#1066,#1067));
#1069=AXIS2_PLACEMENT_3D('',#1409,#1138,#1139);
#1070=AXIS2_PLACEMENT_3D('',#1410,#1140,#1141);
#1071=AXIS2_PLACEMENT_3D('',#1419,#1146,#1147);
#1072=AXIS2_PLACEMENT_3D('',#1425,#1151,#1152);
#1073=AXIS2_PLACEMENT_3D('',#1431,#1156,#1157);
#1074=AXIS2_PLACEMENT_3D('',#1432,#1158,#1159);
#1075=AXIS2_PLACEMENT_3D('',#1433,#1160,#1161);
#1076=AXIS2_PLACEMENT_3D('',#1434,#1162,#1163);
#1077=AXIS2_PLACEMENT_3D('',#1443,#1168,#1169);
#1078=AXIS2_PLACEMENT_3D('',#1452,#1174,#1175);
#1079=AXIS2_PLACEMENT_3D('',#1461,#1180,#1181);
#1080=AXIS2_PLACEMENT_3D('',#1486,#1194,#1195);
#1081=AXIS2_PLACEMENT_3D('',#1494,#1201,#1202);
#1082=AXIS2_PLACEMENT_3D('',#1503,#1207,#1208);
#1083=AXIS2_PLACEMENT_3D('',#1515,#1215,#1216);
#1084=AXIS2_PLACEMENT_3D('',#1527,#1223,#1224);
#1085=AXIS2_PLACEMENT_3D('',#1536,#1229,#1230);
#1086=AXIS2_PLACEMENT_3D('',#1539,#1233,#1234);
#1087=AXIS2_PLACEMENT_3D('',#1541,#1236,#1237);
#1088=AXIS2_PLACEMENT_3D('',#1546,#1242,#1243);
#1089=AXIS2_PLACEMENT_3D('',#1548,#1245,#1246);
#1090=AXIS2_PLACEMENT_3D('',#1550,#1248,#1249);
#1091=AXIS2_PLACEMENT_3D('',#1552,#1251,#1252);
#1092=AXIS2_PLACEMENT_3D('',#1558,#1256,#1257);
#1093=AXIS2_PLACEMENT_3D('',#1564,#1261,#1262);
#1094=AXIS2_PLACEMENT_3D('',#1566,#1263,#1264);
#1095=AXIS2_PLACEMENT_3D('',#1569,#1266,#1267);
#1096=AXIS2_PLACEMENT_3D('',#1570,#1268,#1269);
#1097=AXIS2_PLACEMENT_3D('',#1572,#1270,#1271);
#1098=AXIS2_PLACEMENT_3D('',#1575,#1273,#1274);
#1099=AXIS2_PLACEMENT_3D('',#1576,#1275,#1276);
#1100=AXIS2_PLACEMENT_3D('',#1578,#1277,#1278);
#1101=AXIS2_PLACEMENT_3D('',#1581,#1280,#1281);
#1102=AXIS2_PLACEMENT_3D('',#1582,#1282,#1283);
#1103=AXIS2_PLACEMENT_3D('',#1584,#1284,#1285);
#1104=AXIS2_PLACEMENT_3D('',#1587,#1287,#1288);
#1105=AXIS2_PLACEMENT_3D('',#1588,#1289,#1290);
#1106=AXIS2_PLACEMENT_3D('',#1589,#1291,#1292);
#1107=AXIS2_PLACEMENT_3D('',#1591,#1293,#1294);
#1108=AXIS2_PLACEMENT_3D('',#1594,#1296,#1297);
#1109=AXIS2_PLACEMENT_3D('',#1595,#1298,#1299);
#1110=AXIS2_PLACEMENT_3D('',#1596,#1300,#1301);
#1111=AXIS2_PLACEMENT_3D('',#1605,#1306,#1307);
#1112=AXIS2_PLACEMENT_3D('',#1611,#1311,#1312);
#1113=AXIS2_PLACEMENT_3D('',#1617,#1316,#1317);
#1114=AXIS2_PLACEMENT_3D('',#1620,#1320,#1321);
#1115=AXIS2_PLACEMENT_3D('',#1621,#1322,#1323);
#1116=AXIS2_PLACEMENT_3D('',#1654,#1340,#1341);
#1117=AXIS2_PLACEMENT_3D('',#1660,#1345,#1346);
#1118=AXIS2_PLACEMENT_3D('',#1663,#1349,#1350);
#1119=AXIS2_PLACEMENT_3D('',#1665,#1352,#1353);
#1120=AXIS2_PLACEMENT_3D('',#1669,#1356,#1357);
#1121=AXIS2_PLACEMENT_3D('',#1673,#1360,#1361);
#1122=AXIS2_PLACEMENT_3D('',#1676,#1364,#1365);
#1123=AXIS2_PLACEMENT_3D('',#1678,#1367,#1368);
#1124=AXIS2_PLACEMENT_3D('',#1680,#1370,#1371);
#1125=AXIS2_PLACEMENT_3D('',#1683,#1374,#1375);
#1126=AXIS2_PLACEMENT_3D('',#1685,#1377,#1378);
#1127=AXIS2_PLACEMENT_3D('',#1687,#1380,#1381);
#1128=AXIS2_PLACEMENT_3D('',#1689,#1383,#1384);
#1129=AXIS2_PLACEMENT_3D('',#1691,#1386,#1387);
#1130=AXIS2_PLACEMENT_3D('',#1693,#1389,#1390);
#1131=AXIS2_PLACEMENT_3D('',#1695,#1392,#1393);
#1132=AXIS2_PLACEMENT_3D('',#1697,#1395,#1396);
#1133=AXIS2_PLACEMENT_3D('',#1698,#1397,#1398);
#1134=AXIS2_PLACEMENT_3D('',#1699,#1399,#1400);
#1135=AXIS2_PLACEMENT_3D('',#1700,#1401,#1402);
#1136=AXIS2_PLACEMENT_3D('',#1702,#1404,#1405);
#1137=AXIS2_PLACEMENT_3D('',#1704,#1407,#1408);
#1138=DIRECTION('axis',(0.,0.,1.));
#1139=DIRECTION('refdir',(1.,0.,0.));
#1140=DIRECTION('center_axis',(1.,0.,0.));
#1141=DIRECTION('ref_axis',(0.,0.,1.));
#1142=DIRECTION('',(0.,0.,-1.));
#1143=DIRECTION('',(0.,-1.,0.));
#1144=DIRECTION('',(0.,0.,1.));
#1145=DIRECTION('',(0.,-1.,0.));
#1146=DIRECTION('center_axis',(0.,0.,-1.));
#1147=DIRECTION('ref_axis',(1.,0.,0.));
#1148=DIRECTION('',(-1.,0.,0.));
#1149=DIRECTION('',(1.,0.,0.));
#1150=DIRECTION('',(0.,-1.,0.));
#1151=DIRECTION('center_axis',(-1.,0.,0.));
#1152=DIRECTION('ref_axis',(0.,0.,-1.));
#1153=DIRECTION('',(0.,0.,1.));
#1154=DIRECTION('',(0.,0.,-1.));
#1155=DIRECTION('',(0.,-1.,0.));
#1156=DIRECTION('center_axis',(0.,-1.,0.));
#1157=DIRECTION('ref_axis',(1.83697019872103E-16,0.,1.));
#1158=DIRECTION('center_axis',(0.,1.,0.));
#1159=DIRECTION('ref_axis',(-1.,0.,0.));
#1160=DIRECTION('center_axis',(0.,-1.,0.));
#1161=DIRECTION('ref_axis',(-1.,0.,0.));
#1162=DIRECTION('center_axis',(0.,0.,-1.));
#1163=DIRECTION('ref_axis',(-1.,0.,0.));
#1164=DIRECTION('',(-1.,0.,0.));
#1165=DIRECTION('',(0.,-1.,0.));
#1166=DIRECTION('',(1.,0.,0.));
#1167=DIRECTION('',(0.,1.,0.));
#1168=DIRECTION('center_axis',(0.,0.,1.));
#1169=DIRECTION('ref_axis',(1.,0.,0.));
#1170=DIRECTION('',(0.,-1.,0.));
#1171=DIRECTION('',(-1.,0.,0.));
#1172=DIRECTION('',(0.,1.,0.));
#1173=DIRECTION('',(-1.,0.,0.));
#1174=DIRECTION('center_axis',(0.,0.,1.));
#1175=DIRECTION('ref_axis',(1.,0.,0.));
#1176=DIRECTION('',(0.,-1.,0.));
#1177=DIRECTION('',(-1.,0.,0.));
#1178=DIRECTION('',(0.,-1.,0.));
#1179=DIRECTION('',(-1.,0.,0.));
#1180=DIRECTION('center_axis',(0.,0.,1.));
#1181=DIRECTION('ref_axis',(1.,0.,0.));
#1182=DIRECTION('',(0.,1.,0.));
#1183=DIRECTION('',(-1.,0.,0.));
#1184=DIRECTION('',(0.,-1.,0.));
#1185=DIRECTION('',(1.,0.,0.));
#1186=DIRECTION('',(0.,1.,0.));
#1187=DIRECTION('',(-1.,0.,0.));
#1188=DIRECTION('',(0.,-1.,0.));
#1189=DIRECTION('',(1.,0.,0.));
#1190=DIRECTION('',(0.,-1.,0.));
#1191=DIRECTION('',(-1.,0.,0.));
#1192=DIRECTION('',(0.,1.,0.));
#1193=DIRECTION('',(1.,0.,0.));
#1194=DIRECTION('center_axis',(0.,1.,0.));
#1195=DIRECTION('ref_axis',(-1.,0.,0.));
#1196=DIRECTION('',(0.,0.,-1.));
#1197=DIRECTION('',(0.,0.,1.));
#1198=DIRECTION('',(0.,0.,-1.));
#1199=DIRECTION('',(1.,0.,0.));
#1200=DIRECTION('',(0.,0.,-1.));
#1201=DIRECTION('center_axis',(0.,0.,-1.));
#1202=DIRECTION('ref_axis',(-1.,0.,0.));
#1203=DIRECTION('',(0.,1.,0.));
#1204=DIRECTION('',(-1.,0.,0.));
#1205=DIRECTION('',(0.,-1.,0.));
#1206=DIRECTION('',(1.,0.,0.));
#1207=DIRECTION('center_axis',(0.,0.,-1.));
#1208=DIRECTION('ref_axis',(-1.,0.,0.));
#1209=DIRECTION('',(0.,1.,0.));
#1210=DIRECTION('',(-1.,0.,0.));
#1211=DIRECTION('',(0.,-1.,0.));
#1212=DIRECTION('',(1.,0.,0.));
#1213=DIRECTION('',(0.,1.,0.));
#1214=DIRECTION('',(1.,0.,0.));
#1215=DIRECTION('center_axis',(0.,0.,-1.));
#1216=DIRECTION('ref_axis',(-1.,0.,0.));
#1217=DIRECTION('',(0.,-1.,0.));
#1218=DIRECTION('',(1.,0.,0.));
#1219=DIRECTION('',(0.,-1.,0.));
#1220=DIRECTION('',(1.,0.,0.));
#1221=DIRECTION('',(0.,1.,0.));
#1222=DIRECTION('',(-1.,0.,0.));
#1223=DIRECTION('center_axis',(0.,0.,-1.));
#1224=DIRECTION('ref_axis',(-1.,0.,0.));
#1225=DIRECTION('',(0.,1.,0.));
#1226=DIRECTION('',(-1.,0.,0.));
#1227=DIRECTION('',(0.,-1.,0.));
#1228=DIRECTION('',(1.,0.,0.));
#1229=DIRECTION('center_axis',(0.,1.,0.));
#1230=DIRECTION('ref_axis',(1.,0.,0.));
#1231=DIRECTION('',(0.,0.,-1.));
#1232=DIRECTION('',(0.,0.,-1.));
#1233=DIRECTION('center_axis',(-1.,0.,0.));
#1234=DIRECTION('ref_axis',(0.,1.,0.));
#1235=DIRECTION('',(0.,0.,-1.));
#1236=DIRECTION('center_axis',(0.,-1.,0.));
#1237=DIRECTION('ref_axis',(-1.,0.,0.));
#1238=DIRECTION('',(0.,0.,-1.));
#1239=DIRECTION('',(1.,0.,0.));
#1240=DIRECTION('',(1.,0.,0.));
#1241=DIRECTION('',(1.,0.,0.));
#1242=DIRECTION('center_axis',(1.,0.,0.));
#1243=DIRECTION('ref_axis',(0.,-1.,0.));
#1244=DIRECTION('',(0.,0.,-1.));
#1245=DIRECTION('center_axis',(0.,1.,0.));
#1246=DIRECTION('ref_axis',(1.,0.,0.));
#1247=DIRECTION('',(0.,0.,1.));
#1248=DIRECTION('center_axis',(1.,0.,0.));
#1249=DIRECTION('ref_axis',(0.,1.,0.));
#1250=DIRECTION('',(0.,0.,1.));
#1251=DIRECTION('center_axis',(0.,0.,1.));
#1252=DIRECTION('ref_axis',(1.,0.,0.));
#1253=DIRECTION('',(0.,1.,0.));
#1254=DIRECTION('',(1.,0.,0.));
#1255=DIRECTION('',(0.,-1.,0.));
#1256=DIRECTION('center_axis',(0.,0.,1.));
#1257=DIRECTION('ref_axis',(1.,0.,0.));
#1258=DIRECTION('',(0.,1.,0.));
#1259=DIRECTION('',(1.,0.,0.));
#1260=DIRECTION('',(0.,-1.,0.));
#1261=DIRECTION('center_axis',(0.,1.,0.));
#1262=DIRECTION('ref_axis',(1.,0.,0.));
#1263=DIRECTION('center_axis',(0.,1.,0.));
#1264=DIRECTION('ref_axis',(1.,0.,0.));
#1265=DIRECTION('',(0.,1.,0.));
#1266=DIRECTION('center_axis',(0.,-1.,0.));
#1267=DIRECTION('ref_axis',(1.,0.,0.));
#1268=DIRECTION('center_axis',(0.,1.,0.));
#1269=DIRECTION('ref_axis',(1.,0.,0.));
#1270=DIRECTION('center_axis',(0.,1.,0.));
#1271=DIRECTION('ref_axis',(1.,0.,0.));
#1272=DIRECTION('',(0.,1.,0.));
#1273=DIRECTION('center_axis',(0.,-1.,0.));
#1274=DIRECTION('ref_axis',(1.,0.,0.));
#1275=DIRECTION('center_axis',(0.,1.,0.));
#1276=DIRECTION('ref_axis',(1.,0.,0.));
#1277=DIRECTION('center_axis',(0.,1.,0.));
#1278=DIRECTION('ref_axis',(1.,0.,0.));
#1279=DIRECTION('',(0.,1.,0.));
#1280=DIRECTION('center_axis',(0.,-1.,0.));
#1281=DIRECTION('ref_axis',(1.,0.,0.));
#1282=DIRECTION('center_axis',(0.,0.,1.));
#1283=DIRECTION('ref_axis',(-1.,0.,0.));
#1284=DIRECTION('center_axis',(0.,0.,1.));
#1285=DIRECTION('ref_axis',(-1.,0.,0.));
#1286=DIRECTION('',(0.,0.,-1.));
#1287=DIRECTION('center_axis',(0.,0.,-1.));
#1288=DIRECTION('ref_axis',(-1.,0.,0.));
#1289=DIRECTION('center_axis',(0.,0.,-1.));
#1290=DIRECTION('ref_axis',(-1.,0.,0.));
#1291=DIRECTION('center_axis',(0.,0.,1.));
#1292=DIRECTION('ref_axis',(-1.,0.,0.));
#1293=DIRECTION('center_axis',(0.,0.,1.));
#1294=DIRECTION('ref_axis',(-1.,0.,0.));
#1295=DIRECTION('',(0.,0.,-1.));
#1296=DIRECTION('center_axis',(0.,0.,-1.));
#1297=DIRECTION('ref_axis',(-1.,0.,0.));
#1298=DIRECTION('center_axis',(0.,0.,-1.));
#1299=DIRECTION('ref_axis',(-1.,0.,0.));
#1300=DIRECTION('center_axis',(-1.,0.,0.));
#1301=DIRECTION('ref_axis',(0.,-1.,0.));
#1302=DIRECTION('',(0.,1.,0.));
#1303=DIRECTION('',(0.,0.,1.));
#1304=DIRECTION('',(0.,-1.,0.));
#1305=DIRECTION('',(0.,0.,1.));
#1306=DIRECTION('center_axis',(0.,1.,0.));
#1307=DIRECTION('ref_axis',(-1.,0.,0.));
#1308=DIRECTION('',(1.,0.,0.));
#1309=DIRECTION('',(-1.,0.,0.));
#1310=DIRECTION('',(0.,0.,1.));
#1311=DIRECTION('center_axis',(1.,0.,0.));
#1312=DIRECTION('ref_axis',(0.,1.,0.));
#1313=DIRECTION('',(0.,-1.,0.));
#1314=DIRECTION('',(0.,1.,0.));
#1315=DIRECTION('',(0.,0.,1.));
#1316=DIRECTION('center_axis',(0.,-1.,0.));
#1317=DIRECTION('ref_axis',(1.,0.,0.));
#1318=DIRECTION('',(-1.,0.,0.));
#1319=DIRECTION('',(1.,0.,0.));
#1320=DIRECTION('center_axis',(0.,0.,1.));
#1321=DIRECTION('ref_axis',(1.,0.,0.));
#1322=DIRECTION('center_axis',(0.,0.,-1.));
#1323=DIRECTION('ref_axis',(-1.,0.,0.));
#1324=DIRECTION('',(0.,-1.,0.));
#1325=DIRECTION('',(1.,0.,0.));
#1326=DIRECTION('',(0.,1.,0.));
#1327=DIRECTION('',(1.,0.,0.));
#1328=DIRECTION('',(0.,-1.,0.));
#1329=DIRECTION('',(1.,0.,0.));
#1330=DIRECTION('',(0.,1.,0.));
#1331=DIRECTION('',(1.,0.,0.));
#1332=DIRECTION('',(0.,1.,0.));
#1333=DIRECTION('',(-1.,0.,0.));
#1334=DIRECTION('',(0.,-1.,0.));
#1335=DIRECTION('',(1.,0.,0.));
#1336=DIRECTION('',(0.,-1.,0.));
#1337=DIRECTION('',(1.,0.,0.));
#1338=DIRECTION('',(0.,1.,0.));
#1339=DIRECTION('',(1.,0.,0.));
#1340=DIRECTION('center_axis',(0.,0.,-1.));
#1341=DIRECTION('ref_axis',(-1.,0.,0.));
#1342=DIRECTION('',(0.,1.,0.));
#1343=DIRECTION('',(0.,-1.,0.));
#1344=DIRECTION('',(-1.,0.,0.));
#1345=DIRECTION('center_axis',(-1.,0.,0.));
#1346=DIRECTION('ref_axis',(0.,-1.,0.));
#1347=DIRECTION('',(0.,0.,1.));
#1348=DIRECTION('',(0.,0.,1.));
#1349=DIRECTION('center_axis',(0.,-1.,0.));
#1350=DIRECTION('ref_axis',(1.,0.,0.));
#1351=DIRECTION('',(0.,0.,1.));
#1352=DIRECTION('center_axis',(1.,0.,0.));
#1353=DIRECTION('ref_axis',(0.,1.,0.));
#1354=DIRECTION('',(0.,0.,1.));
#1355=DIRECTION('',(0.,1.,0.));
#1356=DIRECTION('center_axis',(0.,-1.,0.));
#1357=DIRECTION('ref_axis',(1.,0.,0.));
#1358=DIRECTION('',(0.,0.,1.));
#1359=DIRECTION('',(1.,0.,0.));
#1360=DIRECTION('center_axis',(-1.,0.,0.));
#1361=DIRECTION('ref_axis',(0.,-1.,0.));
#1362=DIRECTION('',(0.,0.,1.));
#1363=DIRECTION('',(0.,-1.,0.));
#1364=DIRECTION('center_axis',(0.,-1.,0.));
#1365=DIRECTION('ref_axis',(1.,0.,0.));
#1366=DIRECTION('',(0.,0.,1.));
#1367=DIRECTION('center_axis',(-1.,0.,0.));
#1368=DIRECTION('ref_axis',(0.,-1.,0.));
#1369=DIRECTION('',(0.,0.,1.));
#1370=DIRECTION('center_axis',(0.,1.,0.));
#1371=DIRECTION('ref_axis',(-1.,0.,0.));
#1372=DIRECTION('',(0.,0.,1.));
#1373=DIRECTION('',(0.,0.,-1.));
#1374=DIRECTION('center_axis',(1.,0.,0.));
#1375=DIRECTION('ref_axis',(0.,1.,0.));
#1376=DIRECTION('',(0.,0.,1.));
#1377=DIRECTION('center_axis',(0.,-1.,0.));
#1378=DIRECTION('ref_axis',(1.,0.,0.));
#1379=DIRECTION('',(0.,0.,1.));
#1380=DIRECTION('center_axis',(1.,0.,0.));
#1381=DIRECTION('ref_axis',(0.,1.,0.));
#1382=DIRECTION('',(0.,0.,1.));
#1383=DIRECTION('center_axis',(0.,-1.,0.));
#1384=DIRECTION('ref_axis',(1.,0.,0.));
#1385=DIRECTION('',(0.,0.,1.));
#1386=DIRECTION('center_axis',(-1.,0.,0.));
#1387=DIRECTION('ref_axis',(0.,-1.,0.));
#1388=DIRECTION('',(0.,0.,1.));
#1389=DIRECTION('center_axis',(0.,-1.,0.));
#1390=DIRECTION('ref_axis',(1.,0.,0.));
#1391=DIRECTION('',(0.,0.,1.));
#1392=DIRECTION('center_axis',(1.,0.,0.));
#1393=DIRECTION('ref_axis',(0.,1.,0.));
#1394=DIRECTION('',(0.,0.,1.));
#1395=DIRECTION('center_axis',(0.,-1.,0.));
#1396=DIRECTION('ref_axis',(1.,0.,0.));
#1397=DIRECTION('center_axis',(0.,0.,1.));
#1398=DIRECTION('ref_axis',(1.,0.,0.));
#1399=DIRECTION('center_axis',(-1.,0.,0.));
#1400=DIRECTION('ref_axis',(0.,-1.,0.));
#1401=DIRECTION('center_axis',(1.,0.,0.));
#1402=DIRECTION('ref_axis',(0.,1.,0.));
#1403=DIRECTION('',(0.,0.,-1.));
#1404=DIRECTION('center_axis',(0.,-1.,0.));
#1405=DIRECTION('ref_axis',(1.,0.,0.));
#1406=DIRECTION('',(0.,0.,1.));
#1407=DIRECTION('center_axis',(-1.,0.,0.));
#1408=DIRECTION('ref_axis',(0.,-1.,0.));
#1409=CARTESIAN_POINT('',(0.,0.,0.));
#1410=CARTESIAN_POINT('Origin',(104.197504521639,-131.790006212192,16.05));
#1411=CARTESIAN_POINT('',(104.197504521639,-133.790006212192,21.1771205006954));
#1412=CARTESIAN_POINT('',(104.197504521639,-133.790006212192,16.05));
#1413=CARTESIAN_POINT('',(104.197504521639,-133.790006212192,6.02499999999999));
#1414=CARTESIAN_POINT('',(104.197504521639,-131.790006212192,21.1771205006954));
#1415=CARTESIAN_POINT('',(104.197504521639,-131.790006212192,21.1771205006954));
#1416=CARTESIAN_POINT('',(104.197504521639,-131.790006212192,16.05));
#1417=CARTESIAN_POINT('',(104.197504521639,-131.790006212192,37.025));
#1418=CARTESIAN_POINT('',(104.197504521639,-131.790006212192,16.05));
#1419=CARTESIAN_POINT('Origin',(86.1975045216386,-131.790006212192,16.05));
#1420=CARTESIAN_POINT('',(86.1975045216386,-133.790006212192,16.05));
#1421=CARTESIAN_POINT('',(80.0975040894118,-133.790006212192,16.05));
#1422=CARTESIAN_POINT('',(86.1975045216386,-131.790006212192,16.05));
#1423=CARTESIAN_POINT('',(100.297504953865,-131.790006212192,16.05));
#1424=CARTESIAN_POINT('',(86.1975045216386,-131.790006212192,16.05));
#1425=CARTESIAN_POINT('Origin',(86.1975045216386,-131.790006212192,21.1771205006954));
#1426=CARTESIAN_POINT('',(86.1975045216386,-133.790006212192,21.1771205006954));
#1427=CARTESIAN_POINT('',(86.1975045216386,-133.790006212192,8.5885602503477));
#1428=CARTESIAN_POINT('',(86.1975045216386,-131.790006212192,21.1771205006954));
#1429=CARTESIAN_POINT('',(86.1975045216386,-131.790006212192,39.5885602503477));
#1430=CARTESIAN_POINT('',(86.1975045216386,-131.790006212192,21.1771205006954));
#1431=CARTESIAN_POINT('Origin',(95.1975045216386,-131.790006212192,36.65));
#1432=CARTESIAN_POINT('Origin',(95.1975045216386,-133.790006212192,36.65));
#1433=CARTESIAN_POINT('Origin',(95.1975045216386,-131.790006212192,36.65));
#1434=CARTESIAN_POINT('Origin',(95.1975045216386,-85.2900041223038,-3.00000000000001));
#1435=CARTESIAN_POINT('',(113.397505386092,-86.3900041223038,-3.00000000000001));
#1436=CARTESIAN_POINT('',(76.997503657185,-86.3900041223038,-3.00000000000001));
#1437=CARTESIAN_POINT('',(104.497504953865,-86.3900041223038,-3.00000000000001));
#1438=CARTESIAN_POINT('',(113.397505386092,-83.7900041223038,-3.00000000000001));
#1439=CARTESIAN_POINT('',(113.397505386092,-83.7900041223038,-3.00000000000001));
#1440=CARTESIAN_POINT('',(76.997503657185,-83.7900041223038,-3.00000000000001));
#1441=CARTESIAN_POINT('',(105.797504953865,-83.7900041223038,-3.00000000000001));
#1442=CARTESIAN_POINT('',(76.997503657185,-86.7900041223038,-3.00000000000001));
#1443=CARTESIAN_POINT('Origin',(95.1975045216386,-109.695000574761,10.));
#1444=CARTESIAN_POINT('',(113.397505386092,-86.3900041223038,10.));
#1445=CARTESIAN_POINT('',(113.397505386092,-127.790006212192,9.99999999999999));
#1446=CARTESIAN_POINT('',(113.397505386092,-98.2425023485324,10.));
#1447=CARTESIAN_POINT('',(113.797505386092,-86.3900041223038,10.));
#1448=CARTESIAN_POINT('',(113.797505386092,-86.3900041223038,10.));
#1449=CARTESIAN_POINT('',(113.797505386092,-127.790006212192,9.99999999999999));
#1450=CARTESIAN_POINT('',(113.797505386092,-131.190006212192,10.));
#1451=CARTESIAN_POINT('',(104.297504953865,-127.790006212192,10.));
#1452=CARTESIAN_POINT('Origin',(95.1975045216386,-109.695000574761,10.));
#1453=CARTESIAN_POINT('',(76.997503657185,-86.3900041223038,10.));
#1454=CARTESIAN_POINT('',(76.997503657185,-127.790006212192,9.99999999999999));
#1455=CARTESIAN_POINT('',(76.997503657185,-98.2425023485324,10.));
#1456=CARTESIAN_POINT('',(76.597503657185,-127.790006212192,9.99999999999999));
#1457=CARTESIAN_POINT('',(85.5975040894118,-127.790006212192,10.));
#1458=CARTESIAN_POINT('',(76.597503657185,-86.3900041223038,10.));
#1459=CARTESIAN_POINT('',(76.597503657185,-86.3900041223038,10.));
#1460=CARTESIAN_POINT('',(113.797505386092,-86.3900041223038,10.));
#1461=CARTESIAN_POINT('Origin',(95.1975045216386,-108.790005167248,58.));
#1462=CARTESIAN_POINT('',(76.997503657185,-127.790006212192,58.));
#1463=CARTESIAN_POINT('',(76.997503657185,-83.7900041223038,58.));
#1464=CARTESIAN_POINT('',(76.997503657185,-86.7900041223038,58.));
#1465=CARTESIAN_POINT('',(73.997503657185,-83.7900041223038,58.));
#1466=CARTESIAN_POINT('',(116.397505386092,-83.7900041223038,58.));
#1467=CARTESIAN_POINT('',(73.997503657185,-133.790006212192,58.));
#1468=CARTESIAN_POINT('',(73.997503657185,-83.7900041223038,58.));
#1469=CARTESIAN_POINT('',(116.397505386092,-133.790006212192,58.));
#1470=CARTESIAN_POINT('',(73.997503657185,-133.790006212192,58.));
#1471=CARTESIAN_POINT('',(116.397505386092,-83.7900041223038,58.));
#1472=CARTESIAN_POINT('',(116.397505386092,-133.790006212192,58.));
#1473=CARTESIAN_POINT('',(113.397505386092,-83.7900041223038,58.));
#1474=CARTESIAN_POINT('',(116.397505386092,-83.7900041223038,58.));
#1475=CARTESIAN_POINT('',(113.397505386092,-127.790006212192,58.));
#1476=CARTESIAN_POINT('',(113.397505386092,-96.2900046447758,58.));
#1477=CARTESIAN_POINT('',(114.397505386092,-127.790006212192,58.));
#1478=CARTESIAN_POINT('',(104.297504953865,-127.790006212192,58.));
#1479=CARTESIAN_POINT('',(114.397505386092,-131.790006212192,58.));
#1480=CARTESIAN_POINT('',(114.397505386092,-118.29000568972,58.));
#1481=CARTESIAN_POINT('',(75.997503657185,-131.790006212192,58.));
#1482=CARTESIAN_POINT('',(104.797504953865,-131.790006212192,58.));
#1483=CARTESIAN_POINT('',(75.997503657185,-127.790006212192,58.));
#1484=CARTESIAN_POINT('',(75.997503657185,-120.29000568972,58.));
#1485=CARTESIAN_POINT('',(85.5975040894118,-127.790006212192,58.));
#1486=CARTESIAN_POINT('Origin',(116.397505386092,-83.7900041223038,-4.));
#1487=CARTESIAN_POINT('',(76.997503657185,-83.7900041223038,27.));
#1488=CARTESIAN_POINT('',(113.397505386092,-83.7900041223038,27.));
#1489=CARTESIAN_POINT('',(116.397505386092,-83.7900041223038,-7.));
#1490=CARTESIAN_POINT('',(116.397505386092,-83.7900041223038,-4.));
#1491=CARTESIAN_POINT('',(73.997503657185,-83.7900041223038,-7.));
#1492=CARTESIAN_POINT('',(116.397505386092,-83.7900041223038,-7.));
#1493=CARTESIAN_POINT('',(73.997503657185,-83.7900041223038,-4.));
#1494=CARTESIAN_POINT('Origin',(95.1975045216386,-129.790006212192,9.99999999999999));
#1495=CARTESIAN_POINT('',(99.5011507308682,-131.790006212192,9.99999999999999));
#1496=CARTESIAN_POINT('',(99.5011507308682,-131.190006212192,10.));
#1497=CARTESIAN_POINT('',(99.5011507308682,-131.190006212192,10.));
#1498=CARTESIAN_POINT('',(102.599997706711,-131.790006212192,9.99999999999999));
#1499=CARTESIAN_POINT('',(114.397505386092,-131.790006212192,9.99999999999999));
#1500=CARTESIAN_POINT('',(102.599997706711,-131.190006212192,10.));
#1501=CARTESIAN_POINT('',(102.599997706711,-132.999997027218,10.));
#1502=CARTESIAN_POINT('',(99.5011507308682,-131.190006212192,10.));
#1503=CARTESIAN_POINT('Origin',(95.1975045216386,-129.790006212192,9.99999999999999));
#1504=CARTESIAN_POINT('',(110.501170744484,-131.790006212192,9.99999999999999));
#1505=CARTESIAN_POINT('',(110.501170744484,-131.190006212192,10.));
#1506=CARTESIAN_POINT('',(110.501170744484,-131.190006212192,10.));
#1507=CARTESIAN_POINT('',(114.397505386092,-131.790006212192,9.99999999999999));
#1508=CARTESIAN_POINT('',(114.397505386092,-131.790006212192,9.99999999999999));
#1509=CARTESIAN_POINT('',(114.397505386092,-127.790006212192,9.99999999999999));
#1510=CARTESIAN_POINT('',(114.397505386092,-127.790006212192,9.99999999999999));
#1511=CARTESIAN_POINT('',(75.997503657185,-127.790006212192,9.99999999999999));
#1512=CARTESIAN_POINT('',(113.797505386092,-131.190006212192,10.));
#1513=CARTESIAN_POINT('',(113.797505386092,-131.190006212192,10.));
#1514=CARTESIAN_POINT('',(110.501170744484,-131.190006212192,10.));
#1515=CARTESIAN_POINT('Origin',(95.1975045216386,-129.790006212192,9.99999999999999));
#1516=CARTESIAN_POINT('',(79.9999982118607,-131.190006212192,10.));
#1517=CARTESIAN_POINT('',(79.9999982118607,-131.790006212192,9.99999999999999));
#1518=CARTESIAN_POINT('',(79.9999982118607,-132.999997027218,10.));
#1519=CARTESIAN_POINT('',(76.597503657185,-131.190006212192,10.));
#1520=CARTESIAN_POINT('',(76.597503657185,-131.190006212192,10.));
#1521=CARTESIAN_POINT('',(76.597503657185,-86.3900041223038,10.));
#1522=CARTESIAN_POINT('',(75.997503657185,-127.790006212192,9.99999999999999));
#1523=CARTESIAN_POINT('',(75.997503657185,-127.790006212192,9.99999999999999));
#1524=CARTESIAN_POINT('',(75.997503657185,-131.790006212192,9.99999999999999));
#1525=CARTESIAN_POINT('',(75.997503657185,-131.790006212192,9.99999999999999));
#1526=CARTESIAN_POINT('',(114.397505386092,-131.790006212192,9.99999999999999));
#1527=CARTESIAN_POINT('Origin',(95.1975045216386,-129.790006212192,9.99999999999999));
#1528=CARTESIAN_POINT('',(88.5011317793297,-131.790006212192,9.99999999999999));
#1529=CARTESIAN_POINT('',(88.5011317793297,-131.190006212192,10.));
#1530=CARTESIAN_POINT('',(88.5011317793297,-131.190006212192,10.));
#1531=CARTESIAN_POINT('',(91.4999979548156,-131.790006212192,9.99999999999999));
#1532=CARTESIAN_POINT('',(114.397505386092,-131.790006212192,9.99999999999999));
#1533=CARTESIAN_POINT('',(91.4999979548156,-131.190006212192,10.));
#1534=CARTESIAN_POINT('',(91.4999979548156,-132.999997027218,10.));
#1535=CARTESIAN_POINT('',(88.5011317793297,-131.190006212192,10.));
#1536=CARTESIAN_POINT('Origin',(75.997503657185,-127.790006212192,58.));
#1537=CARTESIAN_POINT('',(75.997503657185,-127.790006212192,58.));
#1538=CARTESIAN_POINT('',(76.997503657185,-127.790006212192,27.));
#1539=CARTESIAN_POINT('Origin',(75.997503657185,-131.790006212192,58.));
#1540=CARTESIAN_POINT('',(75.997503657185,-131.790006212192,58.));
#1541=CARTESIAN_POINT('Origin',(114.397505386092,-131.790006212192,58.));
#1542=CARTESIAN_POINT('',(114.397505386092,-131.790006212192,58.));
#1543=CARTESIAN_POINT('',(104.797504953865,-131.790006212192,10.));
#1544=CARTESIAN_POINT('',(104.797504953865,-131.790006212192,10.));
#1545=CARTESIAN_POINT('',(104.797504953865,-131.790006212192,10.));
#1546=CARTESIAN_POINT('Origin',(114.397505386092,-127.790006212192,58.));
#1547=CARTESIAN_POINT('',(114.397505386092,-127.790006212192,58.));
#1548=CARTESIAN_POINT('Origin',(113.397505386092,-127.790006212192,58.));
#1549=CARTESIAN_POINT('',(113.397505386092,-127.790006212192,27.));
#1550=CARTESIAN_POINT('Origin',(76.997503657185,-130.790006212192,-4.));
#1551=CARTESIAN_POINT('',(76.997503657185,-86.3900041223038,27.));
#1552=CARTESIAN_POINT('Origin',(95.1975045216386,-109.695000574761,10.));
#1553=CARTESIAN_POINT('',(110.501170744484,-132.999997027218,10.));
#1554=CARTESIAN_POINT('',(110.501170744484,-131.190006212192,10.));
#1555=CARTESIAN_POINT('',(102.599997706711,-132.999997027218,10.));
#1556=CARTESIAN_POINT('',(110.501170744484,-132.999997027218,10.));
#1557=CARTESIAN_POINT('',(102.599997706711,-132.999997027218,10.));
#1558=CARTESIAN_POINT('Origin',(95.1975045216386,-109.695000574761,10.));
#1559=CARTESIAN_POINT('',(99.5011507308682,-132.999997027218,10.));
#1560=CARTESIAN_POINT('',(99.5011507308682,-131.190006212192,10.));
#1561=CARTESIAN_POINT('',(91.4999979548156,-132.999997027218,10.));
#1562=CARTESIAN_POINT('',(99.5011507308682,-132.999997027218,10.));
#1563=CARTESIAN_POINT('',(91.4999979548156,-132.999997027218,10.));
#1564=CARTESIAN_POINT('Origin',(84.3745500000001,-137.98,5.09499999999985));
#1565=CARTESIAN_POINT('',(82.40455,-133.790006212192,5.09499999999985));
#1566=CARTESIAN_POINT('Origin',(84.3745500000001,-133.790006212192,5.09499999999985));
#1567=CARTESIAN_POINT('',(82.40455,-132.999997027218,5.09499999999985));
#1568=CARTESIAN_POINT('',(82.40455,-137.98,5.09499999999985));
#1569=CARTESIAN_POINT('Origin',(84.3745500000001,-132.999997027218,5.09499999999985));
#1570=CARTESIAN_POINT('Origin',(95.4370500000001,-137.98,5.09499999999985));
#1571=CARTESIAN_POINT('',(93.4670500000001,-133.790006212192,5.09499999999985));
#1572=CARTESIAN_POINT('Origin',(95.4370500000001,-133.790006212192,5.09499999999985));
#1573=CARTESIAN_POINT('',(93.4670500000001,-132.999997027218,5.09499999999985));
#1574=CARTESIAN_POINT('',(93.4670500000001,-137.98,5.09499999999985));
#1575=CARTESIAN_POINT('Origin',(95.4370500000001,-132.999997027218,5.09499999999985));
#1576=CARTESIAN_POINT('Origin',(106.49955,-137.98,5.09499999999985));
#1577=CARTESIAN_POINT('',(104.52955,-133.790006212192,5.09499999999985));
#1578=CARTESIAN_POINT('Origin',(106.49955,-133.790006212192,5.09499999999985));
#1579=CARTESIAN_POINT('',(104.52955,-132.999997027218,5.09499999999985));
#1580=CARTESIAN_POINT('',(104.52955,-137.98,5.09499999999985));
#1581=CARTESIAN_POINT('Origin',(106.49955,-132.999997027218,5.09499999999985));
#1582=CARTESIAN_POINT('Origin',(110.800005262718,-123.020005843136,-4.));
#1583=CARTESIAN_POINT('',(111.700005314965,-123.020005843136,2.));
#1584=CARTESIAN_POINT('Origin',(110.800005262718,-123.020005843136,2.));
#1585=CARTESIAN_POINT('',(111.700005314965,-123.020005843136,-3.));
#1586=CARTESIAN_POINT('',(111.700005314965,-123.020005843136,-4.));
#1587=CARTESIAN_POINT('Origin',(110.800005262718,-123.020005843136,-3.));
#1588=CARTESIAN_POINT('Origin',(110.800005262718,-123.020005843136,2.));
#1589=CARTESIAN_POINT('Origin',(79.6000037807971,-122.650005825562,-4.));
#1590=CARTESIAN_POINT('',(80.5000038330443,-122.650005825562,2.));
#1591=CARTESIAN_POINT('Origin',(79.6000037807971,-122.650005825562,2.));
#1592=CARTESIAN_POINT('',(80.5000038330443,-122.650005825562,-3.));
#1593=CARTESIAN_POINT('',(80.5000038330443,-122.650005825562,-4.));
#1594=CARTESIAN_POINT('Origin',(79.6000037807971,-122.650005825562,-3.));
#1595=CARTESIAN_POINT('Origin',(79.6000037807971,-122.650005825562,2.));
#1596=CARTESIAN_POINT('Origin',(76.997503657185,-86.7900041223038,-4.));
#1597=CARTESIAN_POINT('',(76.997503657185,-130.790006212192,-4.));
#1598=CARTESIAN_POINT('',(76.997503657185,-86.7900041223038,-4.));
#1599=CARTESIAN_POINT('',(76.997503657185,-97.7900046447758,-4.));
#1600=CARTESIAN_POINT('',(76.997503657185,-130.790006212192,-3.));
#1601=CARTESIAN_POINT('',(76.997503657185,-130.790006212192,-4.));
#1602=CARTESIAN_POINT('',(76.997503657185,-86.7900041223038,-3.));
#1603=CARTESIAN_POINT('',(76.997503657185,-86.7900041223038,-3.));
#1604=CARTESIAN_POINT('',(76.997503657185,-86.7900041223038,-4.));
#1605=CARTESIAN_POINT('Origin',(113.397505386092,-86.7900041223038,-4.));
#1606=CARTESIAN_POINT('',(113.397505386092,-86.7900041223038,-4.));
#1607=CARTESIAN_POINT('',(104.297504953865,-86.7900041223038,-4.));
#1608=CARTESIAN_POINT('',(113.397505386092,-86.7900041223038,-3.));
#1609=CARTESIAN_POINT('',(113.397505386092,-86.7900041223038,-3.));
#1610=CARTESIAN_POINT('',(113.397505386092,-86.7900041223038,-4.));
#1611=CARTESIAN_POINT('Origin',(113.397505386092,-130.790006212192,-4.));
#1612=CARTESIAN_POINT('',(113.397505386092,-130.790006212192,-4.));
#1613=CARTESIAN_POINT('',(113.397505386092,-119.79000568972,-4.));
#1614=CARTESIAN_POINT('',(113.397505386092,-130.790006212192,-3.));
#1615=CARTESIAN_POINT('',(113.397505386092,-130.790006212192,-3.));
#1616=CARTESIAN_POINT('',(113.397505386092,-130.790006212192,-4.));
#1617=CARTESIAN_POINT('Origin',(76.997503657185,-130.790006212192,-4.));
#1618=CARTESIAN_POINT('',(86.0975040894118,-130.790006212192,-4.));
#1619=CARTESIAN_POINT('',(76.997503657185,-130.790006212192,-3.));
#1620=CARTESIAN_POINT('Origin',(95.1975045216386,-108.790005167248,-3.));
#1621=CARTESIAN_POINT('Origin',(95.1975045216386,-108.790005167248,-4.));
#1622=CARTESIAN_POINT('',(91.4999979548156,-131.190006212192,-4.));
#1623=CARTESIAN_POINT('',(91.4999979548156,-132.999997027218,-4.));
#1624=CARTESIAN_POINT('',(91.4999979548156,-119.99000568972,-4.));
#1625=CARTESIAN_POINT('',(99.5011507308682,-132.999997027218,-4.));
#1626=CARTESIAN_POINT('',(93.3487512382271,-132.999997027218,-4.));
#1627=CARTESIAN_POINT('',(99.5011507308682,-131.190006212192,-4.));
#1628=CARTESIAN_POINT('',(99.5011507308682,-120.895001097233,-4.));
#1629=CARTESIAN_POINT('',(102.599997706711,-131.190006212192,-4.));
#1630=CARTESIAN_POINT('',(97.3493276262534,-131.190006212192,-4.));
#1631=CARTESIAN_POINT('',(102.599997706711,-132.999997027218,-4.));
#1632=CARTESIAN_POINT('',(102.599997706711,-119.99000568972,-4.));
#1633=CARTESIAN_POINT('',(110.501170744484,-132.999997027218,-4.));
#1634=CARTESIAN_POINT('',(98.898751114175,-132.999997027218,-4.));
#1635=CARTESIAN_POINT('',(110.501170744484,-131.190006212192,-4.));
#1636=CARTESIAN_POINT('',(110.501170744484,-120.895001097233,-4.));
#1637=CARTESIAN_POINT('',(113.797505386092,-131.190006212192,-4.));
#1638=CARTESIAN_POINT('',(102.849337633061,-131.190006212192,-4.));
#1639=CARTESIAN_POINT('',(113.797505386092,-86.3900041223038,-4.));
#1640=CARTESIAN_POINT('',(113.797505386092,-119.99000568972,-4.));
#1641=CARTESIAN_POINT('',(76.597503657185,-86.3900041223038,-4.));
#1642=CARTESIAN_POINT('',(104.497504953865,-86.3900041223038,-4.));
#1643=CARTESIAN_POINT('',(76.597503657185,-131.190006212192,-4.));
#1644=CARTESIAN_POINT('',(76.597503657185,-97.5900046447758,-4.));
#1645=CARTESIAN_POINT('',(79.9999982118607,-131.190006212192,-4.));
#1646=CARTESIAN_POINT('',(85.8975040894118,-131.190006212192,-4.));
#1647=CARTESIAN_POINT('',(79.9999982118607,-132.999997027218,-4.));
#1648=CARTESIAN_POINT('',(79.9999982118607,-119.99000568972,-4.));
#1649=CARTESIAN_POINT('',(88.5011317793297,-132.999997027218,-4.));
#1650=CARTESIAN_POINT('',(87.5987513667496,-132.999997027218,-4.));
#1651=CARTESIAN_POINT('',(88.5011317793297,-131.190006212192,-4.));
#1652=CARTESIAN_POINT('',(88.5011317793297,-120.895001097233,-4.));
#1653=CARTESIAN_POINT('',(91.8493181504842,-131.190006212192,-4.));
#1654=CARTESIAN_POINT('Origin',(95.1975045216386,-108.790005167248,-7.));
#1655=CARTESIAN_POINT('',(73.997503657185,-133.790006212192,-7.));
#1656=CARTESIAN_POINT('',(73.997503657185,-83.7900041223038,-7.));
#1657=CARTESIAN_POINT('',(116.397505386092,-133.790006212192,-7.));
#1658=CARTESIAN_POINT('',(116.397505386092,-133.790006212192,-7.));
#1659=CARTESIAN_POINT('',(73.997503657185,-133.790006212192,-7.));
#1660=CARTESIAN_POINT('Origin',(91.4999979548156,-131.190006212192,-4.));
#1661=CARTESIAN_POINT('',(91.4999979548156,-131.190006212192,-4.));
#1662=CARTESIAN_POINT('',(91.4999979548156,-132.999997027218,-4.));
#1663=CARTESIAN_POINT('Origin',(88.5011317793297,-131.190006212192,-4.));
#1664=CARTESIAN_POINT('',(88.5011317793297,-131.190006212192,-4.));
#1665=CARTESIAN_POINT('Origin',(88.5011317793297,-132.999997027218,-4.));
#1666=CARTESIAN_POINT('',(88.5011317793297,-132.999997027218,10.));
#1667=CARTESIAN_POINT('',(88.5011317793297,-132.999997027218,-4.));
#1668=CARTESIAN_POINT('',(88.5011317793297,-131.190006212192,10.));
#1669=CARTESIAN_POINT('Origin',(79.9999982118607,-132.999997027218,-4.));
#1670=CARTESIAN_POINT('',(79.9999982118607,-132.999997027218,10.));
#1671=CARTESIAN_POINT('',(79.9999982118607,-132.999997027218,-4.));
#1672=CARTESIAN_POINT('',(88.5011317793297,-132.999997027218,10.));
#1673=CARTESIAN_POINT('Origin',(79.9999982118607,-131.190006212192,-4.));
#1674=CARTESIAN_POINT('',(79.9999982118607,-131.190006212192,-4.));
#1675=CARTESIAN_POINT('',(79.9999982118607,-132.999997027218,10.));
#1676=CARTESIAN_POINT('Origin',(76.597503657185,-131.190006212192,-4.));
#1677=CARTESIAN_POINT('',(76.597503657185,-131.190006212192,-4.));
#1678=CARTESIAN_POINT('Origin',(76.597503657185,-86.3900041223038,-4.));
#1679=CARTESIAN_POINT('',(76.597503657185,-86.3900041223038,-4.));
#1680=CARTESIAN_POINT('Origin',(113.797505386092,-86.3900041223038,-4.));
#1681=CARTESIAN_POINT('',(113.797505386092,-86.3900041223038,-4.));
#1682=CARTESIAN_POINT('',(113.397505386092,-86.3900041223038,27.));
#1683=CARTESIAN_POINT('Origin',(113.797505386092,-131.190006212192,-4.));
#1684=CARTESIAN_POINT('',(113.797505386092,-131.190006212192,-4.));
#1685=CARTESIAN_POINT('Origin',(110.501170744484,-131.190006212192,-4.));
#1686=CARTESIAN_POINT('',(110.501170744484,-131.190006212192,-4.));
#1687=CARTESIAN_POINT('Origin',(110.501170744484,-132.999997027218,-4.));
#1688=CARTESIAN_POINT('',(110.501170744484,-132.999997027218,-4.));
#1689=CARTESIAN_POINT('Origin',(102.599997706711,-132.999997027218,-4.));
#1690=CARTESIAN_POINT('',(102.599997706711,-132.999997027218,-4.));
#1691=CARTESIAN_POINT('Origin',(102.599997706711,-131.190006212192,-4.));
#1692=CARTESIAN_POINT('',(102.599997706711,-131.190006212192,-4.));
#1693=CARTESIAN_POINT('Origin',(99.5011507308682,-131.190006212192,-4.));
#1694=CARTESIAN_POINT('',(99.5011507308682,-131.190006212192,-4.));
#1695=CARTESIAN_POINT('Origin',(99.5011507308682,-132.999997027218,-4.));
#1696=CARTESIAN_POINT('',(99.5011507308682,-132.999997027218,-4.));
#1697=CARTESIAN_POINT('Origin',(91.4999979548156,-132.999997027218,-4.));
#1698=CARTESIAN_POINT('Origin',(95.1975045216386,-109.695000574761,10.));
#1699=CARTESIAN_POINT('Origin',(113.397505386092,-86.7900041223038,-4.));
#1700=CARTESIAN_POINT('Origin',(116.397505386092,-133.790006212192,-4.));
#1701=CARTESIAN_POINT('',(116.397505386092,-133.790006212192,-4.));
#1702=CARTESIAN_POINT('Origin',(73.997503657185,-133.790006212192,-4.));
#1703=CARTESIAN_POINT('',(73.997503657185,-133.790006212192,-4.));
#1704=CARTESIAN_POINT('Origin',(73.997503657185,-83.7900041223038,-4.));
#1705=UNCERTAINTY_MEASURE_WITH_UNIT(LENGTH_MEASURE(0.01),#1709,
'DISTANCE_ACCURACY_VALUE',
'Maximum model space distance between geometric entities at asserted c
onnectivities');
#1706=UNCERTAINTY_MEASURE_WITH_UNIT(LENGTH_MEASURE(0.01),#1709,
'DISTANCE_ACCURACY_VALUE',
'Maximum model space distance between geometric entities at asserted c
onnectivities');
#1707=(
GEOMETRIC_REPRESENTATION_CONTEXT(3)
GLOBAL_UNCERTAINTY_ASSIGNED_CONTEXT((#1705))
GLOBAL_UNIT_ASSIGNED_CONTEXT((#1709,#1710,#1711))
REPRESENTATION_CONTEXT('','3D')
);
#1708=(
GEOMETRIC_REPRESENTATION_CONTEXT(3)
GLOBAL_UNCERTAINTY_ASSIGNED_CONTEXT((#1706))
GLOBAL_UNIT_ASSIGNED_CONTEXT((#1709,#1710,#1711))
REPRESENTATION_CONTEXT('','3D')
);
#1709=(
LENGTH_UNIT()
NAMED_UNIT(*)
SI_UNIT(.MILLI.,.METRE.)
);
#1710=(
NAMED_UNIT(*)
PLANE_ANGLE_UNIT()
SI_UNIT($,.RADIAN.)
);
#1711=(
NAMED_UNIT(*)
SI_UNIT($,.STERADIAN.)
SOLID_ANGLE_UNIT()
);
#1712=SHAPE_DEFINITION_REPRESENTATION(#1713,#1714);
#1713=PRODUCT_DEFINITION_SHAPE('',$,#1716);
#1714=SHAPE_REPRESENTATION('',(#1069),#1707);
#1715=PRODUCT_DEFINITION_CONTEXT('part definition',#1720,'design');
#1716=PRODUCT_DEFINITION('reptistatV2a','reptistatV2a v1',#1717,#1715);
#1717=PRODUCT_DEFINITION_FORMATION('',$,#1722);
#1718=PRODUCT_RELATED_PRODUCT_CATEGORY('reptistatV2a v1',
'reptistatV2a v1',(#1722));
#1719=APPLICATION_PROTOCOL_DEFINITION('international standard',
'automotive_design',2009,#1720);
#1720=APPLICATION_CONTEXT(
'Core Data for Automotive Mechanical Design Process');
#1721=PRODUCT_CONTEXT('part definition',#1720,'mechanical');
#1722=PRODUCT('reptistatV2a','reptistatV2a v1',$,(#1721));
#1723=PRESENTATION_STYLE_ASSIGNMENT((#1724));
#1724=SURFACE_STYLE_USAGE(.BOTH.,#1725);
#1725=SURFACE_SIDE_STYLE('',(#1726));
#1726=SURFACE_STYLE_FILL_AREA(#1727);
#1727=FILL_AREA_STYLE('Steel - Satin',(#1728));
#1728=FILL_AREA_STYLE_COLOUR('Steel - Satin',#1729);
#1729=COLOUR_RGB('Steel - Satin',0.627450980392157,0.627450980392157,0.627450980392157);
ENDSEC;
END-ISO-10303-21;
